<?xml version="1.0" encoding="UTF-8" standalone="no"?>
<svg
   xmlns:dc="http://purl.org/dc/elements/1.1/"
   xmlns:cc="http://creativecommons.org/ns#"
   xmlns:rdf="http://www.w3.org/1999/02/22-rdf-syntax-ns#"
   xmlns:svg="http://www.w3.org/2000/svg"
   xmlns="http://www.w3.org/2000/svg"
   viewBox="0 0 566.66669 452"
   height="452"
   width="566.66669"
   xml:space="preserve"
   id="svg2"
   version="1.1"><metadata
     id="metadata8"><rdf:RDF><cc:Work
         rdf:about=""><dc:format>image/svg+xml</dc:format><dc:type
           rdf:resource="http://purl.org/dc/dcmitype/StillImage" /></cc:Work></rdf:RDF></metadata><defs
     id="defs6" /><g
     transform="matrix(1.3333333,0,0,-1.3333333,0,452)"
     id="g10"><g
       transform="scale(0.1)"
       id="g12"><g
         transform="scale(10)"
         id="g14"><text
           id="text18"
           style="font-variant:normal;font-weight:normal;font-size:7.875px;font-family:'Courier 10 Pitch';-inkscape-font-specification:Courier;writing-mode:lr-tb;fill:#000000;fill-opacity:1;fill-rule:nonzero;stroke:none"
           transform="matrix(1,0,0,-1,24.625,294.532)"><tspan
             id="tspan16"
             y="0"
             x="0 4.7249999 9.4499998 14.175 18.9 23.625 28.35 33.075001">lang.tsx</tspan></text>
</g><path
         id="path20"
         style="fill:none;stroke:#000000;stroke-width:5.625;stroke-linecap:butt;stroke-linejoin:miter;stroke-miterlimit:1;stroke-dasharray:none;stroke-opacity:1"
         d="M 443.125,2860.94 1866.65,2039.68" /><path
         id="path22"
         style="fill:#ffffff;fill-opacity:1;fill-rule:nonzero;stroke:none"
         d="m 1905.63,2017.19 -47.42,7.87 16.87,29.23" /><path
         id="path24"
         style="fill:#000000;fill-opacity:1;fill-rule:nonzero;stroke:none"
         d="m 1905.63,2017.19 -47.42,7.87 16.87,29.23" /><g
         transform="scale(10)"
         id="g26"><text
           id="text36"
           style="font-variant:normal;font-weight:normal;font-size:7.875px;font-family:'Courier 10 Pitch';-inkscape-font-specification:Courier;writing-mode:lr-tb;fill:#000000;fill-opacity:1;fill-rule:nonzero;stroke:none"
           transform="matrix(1,0,0,-1,72.4375,190.469)"><tspan
             id="tspan28"
             y="0"
             x="0 4.7249999 9.4499998 14.175 18.9 23.625 28.35 33.075001 37.799999 42.525002 47.25 51.974998 56.700001 61.424999 66.150002 70.875 75.599998 80.324997 85.050003 89.775002 94.5 99.224998 103.95 108.675 113.4 118.125 122.85 127.575 132.3 137.02499 141.75 146.47501 151.2 155.925 160.64999 165.375 170.10001 174.825 179.55 184.27499 189 193.72501 198.45 203.175 207.89999 212.625 217.35001 222.075 226.8 231.52499 236.25 240.97501 245.7 250.425 255.14999">apertium-tagger { --train &lt;n&gt; | --supervised &lt;n&gt; } lang</tspan><tspan
             id="tspan30"
             y="-106.875"
             x="53.4375 58.162498 62.887501 67.612503 72.337502 77.0625 81.787498 86.512497 120.93751 125.66251 130.38751 135.11252 139.83751 144.56252 149.28751 154.01251">lang.diclang.crp</tspan><tspan
             id="tspan32"
             y="59.063"
             x="106.875 111.6 116.325 121.05 125.775 130.5 135.22501 139.95 144.675">lang.prob</tspan><tspan
             id="tspan34"
             y="-104.062"
             x="199.6875 204.41251 209.1375 213.8625 218.58749 223.3125 228.03751 232.7625 237.4875 242.21249 246.9375 270 274.72498 279.44998 284.17499 288.89999 293.625 298.34998 303.07498 307.79999 312.52499 317.25 321.97498 326.69998">lang.taggedlang.untagged</tspan></text>
</g><path
         id="path38"
         style="fill:none;stroke:#000000;stroke-width:5.625;stroke-linecap:butt;stroke-linejoin:miter;stroke-miterlimit:10;stroke-dasharray:none;stroke-opacity:1"
         d="m 190,2860.94 h 534.375 v 225 H 190 Z" /><path
         id="path40"
         style="fill:none;stroke:#000000;stroke-width:5.625;stroke-linecap:butt;stroke-linejoin:miter;stroke-miterlimit:10;stroke-dasharray:none;stroke-opacity:1"
         d="m 1174.38,2860.94 h 534.375 v 225 H 1174.38 Z" /><path
         id="path42"
         style="fill:none;stroke:#000000;stroke-width:5.625;stroke-linecap:butt;stroke-linejoin:miter;stroke-miterlimit:10;stroke-dasharray:none;stroke-opacity:1"
         d="m 1877.5,2860.94 h 534.375 v 225 H 1877.5 Z" /><path
         id="path44"
         style="fill:none;stroke:#000000;stroke-width:5.625;stroke-linecap:butt;stroke-linejoin:miter;stroke-miterlimit:10;stroke-dasharray:none;stroke-opacity:1"
         d="m 2721.25,2860.94 h 562.5 v 225 h -562.5 z" /><path
         id="path46"
         style="fill:none;stroke:#000000;stroke-width:5.625;stroke-linecap:butt;stroke-linejoin:miter;stroke-miterlimit:10;stroke-dasharray:none;stroke-opacity:1"
         d="m 3424.38,2860.94 h 675 v 225 h -675 z" /><path
         id="path48"
         style="fill:none;stroke:#000000;stroke-width:16.875;stroke-linecap:butt;stroke-linejoin:miter;stroke-miterlimit:10;stroke-dasharray:none;stroke-opacity:1"
         d="m 696.25,1820.32 h 2840.63 v 196.875 H 696.25 Z" /><path
         id="path50"
         style="fill:none;stroke:#000000;stroke-width:5.625;stroke-linecap:butt;stroke-linejoin:miter;stroke-miterlimit:1;stroke-dasharray:none;stroke-opacity:1"
         d="m 105.625,554.691 h 236.25" /><path
         id="path52"
         style="fill:#ffffff;fill-opacity:1;fill-rule:nonzero;stroke:none"
         d="m 386.875,554.691 -45,-16.875 v 33.75" /><path
         id="path54"
         style="fill:#000000;fill-opacity:1;fill-rule:nonzero;stroke:none"
         d="m 386.875,554.691 -45,-16.875 v 33.75" /><g
         transform="scale(10)"
         id="g56"><text
           id="text60"
           style="font-variant:normal;font-weight:normal;font-size:7.875px;font-family:'Courier 10 Pitch';-inkscape-font-specification:Courier;writing-mode:lr-tb;fill:#000000;fill-opacity:1;fill-rule:nonzero;stroke:none"
           transform="matrix(1,0,0,-1,44.3125,52.6566)"><tspan
             id="tspan58"
             y="0"
             x="0 4.7249999 9.4499998 14.175 18.9 23.625 28.35 33.075001 37.799999 42.525002 47.25 51.974998 56.700001 61.424999 66.150002 70.875 75.599998">input/output file</tspan></text>
</g><path
         id="path62"
         style="fill:none;stroke:#000000;stroke-width:16.875;stroke-linecap:butt;stroke-linejoin:miter;stroke-miterlimit:10;stroke-dasharray:none;stroke-opacity:1"
         d="m 105.625,385.941 h 281.25 v 84.375 h -281.25 z" /><g
         transform="scale(10)"
         id="g64"><text
           id="text68"
           style="font-variant:normal;font-weight:normal;font-size:7.875px;font-family:'Courier 10 Pitch';-inkscape-font-specification:Courier;writing-mode:lr-tb;fill:#000000;fill-opacity:1;fill-rule:nonzero;stroke:none"
           transform="matrix(1,0,0,-1,44.3125,38.5941)"><tspan
             id="tspan66"
             y="0"
             x="0 4.7249999 9.4499998 14.175 18.9 23.625 28.35">program</tspan></text>
</g><path
         id="path70"
         style="fill:none;stroke:#000000;stroke-width:5.625;stroke-linecap:butt;stroke-linejoin:miter;stroke-miterlimit:10;stroke-dasharray:none;stroke-opacity:1"
         d="m 105.625,245.316 h 281.25 v 84.375 h -281.25 z" /><g
         transform="scale(10)"
         id="g72"><text
           id="text76"
           style="font-variant:normal;font-weight:normal;font-size:7.875px;font-family:'Courier 10 Pitch';-inkscape-font-specification:Courier;writing-mode:lr-tb;fill:#000000;fill-opacity:1;fill-rule:nonzero;stroke:none"
           transform="matrix(1,0,0,-1,44.3125,24.5316)"><tspan
             id="tspan74"
             y="0"
             x="0 4.7249999 9.4499998 14.175 18.9 23.625 28.35 33.075001 37.799999">data file</tspan></text>
</g><path
         id="path78"
         style="fill:none;stroke:#000000;stroke-width:5.625;stroke-linecap:butt;stroke-linejoin:miter;stroke-miterlimit:1;stroke-dasharray:none;stroke-opacity:1"
         d="m 1455.63,2860.94 510.29,-805.73" /><path
         id="path80"
         style="fill:#ffffff;fill-opacity:1;fill-rule:nonzero;stroke:none"
         d="m 1990,2017.19 -38.33,28.99 28.51,18.05" /><path
         id="path82"
         style="fill:#000000;fill-opacity:1;fill-rule:nonzero;stroke:none"
         d="m 1990,2017.19 -38.33,28.99 28.51,18.05" /><path
         id="path84"
         style="fill:none;stroke:#000000;stroke-width:5.625;stroke-linecap:butt;stroke-linejoin:miter;stroke-miterlimit:1;stroke-dasharray:none;stroke-opacity:1"
         d="m 2130.63,2860.94 -79.9,-798.98" /><path
         id="path86"
         style="fill:#ffffff;fill-opacity:1;fill-rule:nonzero;stroke:none"
         d="m 2046.25,2017.19 -12.31,46.45 33.58,-3.35" /><path
         id="path88"
         style="fill:#000000;fill-opacity:1;fill-rule:nonzero;stroke:none"
         d="m 2046.25,2017.19 -12.31,46.45 33.58,-3.35" /><path
         id="path90"
         style="fill:none;stroke:#000000;stroke-width:5.625;stroke-linecap:butt;stroke-linejoin:miter;stroke-miterlimit:1;stroke-dasharray:none;stroke-opacity:1"
         d="M 2974.38,2860.94 2134.84,2048.48" /><path
         id="path92"
         style="fill:#ffffff;fill-opacity:1;fill-rule:nonzero;stroke:none"
         d="m 2102.5,2017.19 20.6,43.42 23.47,-24.25" /><path
         id="path94"
         style="fill:#000000;fill-opacity:1;fill-rule:nonzero;stroke:none"
         d="m 2102.5,2017.19 20.6,43.42 23.47,-24.25" /><path
         id="path96"
         style="fill:none;stroke:#000000;stroke-width:5.625;stroke-linecap:butt;stroke-linejoin:miter;stroke-miterlimit:1;stroke-dasharray:none;stroke-opacity:1"
         d="M 3761.88,2860.94 2226.54,2038.44" /><path
         id="path98"
         style="fill:#ffffff;fill-opacity:1;fill-rule:nonzero;stroke:none"
         d="m 2186.88,2017.19 31.69,36.12 15.94,-29.75" /><path
         id="path100"
         style="fill:#000000;fill-opacity:1;fill-rule:nonzero;stroke:none"
         d="m 2186.88,2017.19 31.69,36.12 15.94,-29.75" /><g
         transform="scale(10)"
         id="g102"><text
           id="text106"
           style="font-variant:normal;font-weight:normal;font-size:7.875px;font-family:'Courier 10 Pitch';-inkscape-font-specification:Courier;writing-mode:lr-tb;fill:#000000;fill-opacity:1;fill-rule:nonzero;stroke:none"
           transform="matrix(1,0,0,-1,117.438,311.407)"><tspan
             id="tspan104"
             y="0"
             x="0 4.7249999 9.4499998 14.175 18.9 23.625 28.35 33.075001 37.799999 42.525002 61.874977 66.599976 71.324974 76.04998 80.774979 85.499977 90.224976 94.949974 99.67498 104.39998 109.12498 113.84998 118.57497 123.29998 128.02498 149.06248 153.78749 158.51248 163.23749 167.96249 172.68748 177.41249 182.13748 186.86249 191.58749 196.31248 201.03749 205.76248 222.18745 226.91246 231.63745 236.36246 241.08745 245.81245 250.53746 255.26245 259.98746 264.71246 269.43747 274.16245 278.88745 283.61246 288.33746">dictionarytraining corpustagged corpusanalized corpus</tspan></text>
</g><path
         id="path108"
         style="fill:none;stroke:#000000;stroke-width:5.625;stroke-linecap:butt;stroke-linejoin:miter;stroke-miterlimit:10;stroke-dasharray:67.5, 22.5;stroke-dashoffset:0;stroke-opacity:1"
         d="m 2580.63,2692.19 h 1659.38 v 590.625 H 2580.63 Z" /><g
         transform="scale(10)"
         id="g110"><text
           id="text114"
           style="font-variant:normal;font-weight:normal;font-size:7.875px;font-family:'Courier 10 Pitch';-inkscape-font-specification:Courier;writing-mode:lr-tb;fill:#000000;fill-opacity:1;fill-rule:nonzero;stroke:none"
           transform="matrix(1,0,0,-1,260.875,331.094)"><tspan
             id="tspan112"
             y="0"
             x="0 4.7249999 9.4499998 14.175 18.9 23.625 28.35 33.075001 37.799999 42.525002 47.25 51.974998 56.700001 61.424999 66.150002 70.875 75.599998 80.324997 85.050003 89.775002 94.5 99.224998 103.95 108.675 113.4 118.125 122.85 127.575 132.3 137.02499 141.75 146.47501">used only if supervised training</tspan></text>
</g><path
         id="path116"
         style="fill:none;stroke:#000000;stroke-width:5.625;stroke-linecap:butt;stroke-linejoin:miter;stroke-miterlimit:10;stroke-dasharray:none;stroke-opacity:1"
         d="m 1765,1229.69 h 534.375 v 225 H 1765 Z" /><path
         id="path118"
         style="fill:none;stroke:#000000;stroke-width:5.625;stroke-linecap:butt;stroke-linejoin:miter;stroke-miterlimit:1;stroke-dasharray:none;stroke-opacity:1"
         d="m 1990,1820.32 v -292.5" /><path
         id="path120"
         style="fill:#ffffff;fill-opacity:1;fill-rule:nonzero;stroke:none"
         d="m 1990,1482.82 -16.87,45 h 33.75" /><path
         id="path122"
         style="fill:#000000;fill-opacity:1;fill-rule:nonzero;stroke:none"
         d="m 1990,1482.82 -16.87,45 h 33.75" /><g
         transform="scale(10)"
         id="g124"><text
           id="text128"
           style="font-variant:normal;font-weight:normal;font-size:7.875px;font-family:'Courier 10 Pitch';-inkscape-font-specification:Courier;writing-mode:lr-tb;fill:#000000;fill-opacity:1;fill-rule:nonzero;stroke:none"
           transform="matrix(1,0,0,-1,123.063,83.5941)"><tspan
             id="tspan126"
             y="0"
             x="0 4.7249999 9.4499998 14.175 18.9 23.625 28.35 33.075001 37.799999 42.525002 47.25 51.974998 56.700001 61.424999 66.150002 70.875 75.599998 80.324997 85.050003 89.775002 94.5 99.224998 103.95 108.675 113.4 118.125 122.85 127.575 132.3">apertium-tagger --tagger lang</tspan></text>
</g><path
         id="path130"
         style="fill:none;stroke:#000000;stroke-width:16.875;stroke-linecap:butt;stroke-linejoin:miter;stroke-miterlimit:10;stroke-dasharray:none;stroke-opacity:1"
         d="M 1174.38,751.566 H 2777.51 V 948.441 H 1174.38 Z" /><path
         id="path132"
         style="fill:none;stroke:#000000;stroke-width:5.625;stroke-linecap:butt;stroke-linejoin:miter;stroke-miterlimit:1;stroke-dasharray:none;stroke-opacity:1"
         d="M 1990,1229.69 V 993.441" /><path
         id="path134"
         style="fill:#ffffff;fill-opacity:1;fill-rule:nonzero;stroke:none"
         d="m 1990,948.441 -16.87,45 h 33.75" /><path
         id="path136"
         style="fill:#000000;fill-opacity:1;fill-rule:nonzero;stroke:none"
         d="m 1990,948.441 -16.87,45 h 33.75" /><path
         id="path138"
         style="fill:none;stroke:#000000;stroke-width:5.625;stroke-linecap:butt;stroke-linejoin:miter;stroke-miterlimit:10;stroke-dasharray:none;stroke-opacity:1"
         d="M 218.125,751.566 H 808.75 v 225 H 218.125 Z" /><g
         transform="scale(10)"
         id="g140"><text
           id="text144"
           style="font-variant:normal;font-weight:normal;font-size:7.875px;font-family:'Courier 10 Pitch';-inkscape-font-specification:Courier;writing-mode:lr-tb;fill:#000000;fill-opacity:1;fill-rule:nonzero;stroke:none"
           transform="matrix(1,0,0,-1,27.4375,83.5941)"><tspan
             id="tspan142"
             y="0"
             x="0 4.7249999 9.4499998 14.175 18.9 23.625 28.35 33.075001 37.799999 42.525002">input text</tspan></text>
</g><path
         id="path146"
         style="fill:none;stroke:#000000;stroke-width:5.625;stroke-linecap:butt;stroke-linejoin:miter;stroke-miterlimit:10;stroke-dasharray:none;stroke-opacity:1"
         d="m 3143.13,751.566 h 1068.75 v 225 H 3143.13 Z" /><g
         transform="scale(10)"
         id="g148"><text
           id="text152"
           style="font-variant:normal;font-weight:normal;font-size:7.875px;font-family:'Courier 10 Pitch';-inkscape-font-specification:Courier;writing-mode:lr-tb;fill:#000000;fill-opacity:1;fill-rule:nonzero;stroke:none"
           transform="matrix(1,0,0,-1,317.125,83.5941)"><tspan
             id="tspan150"
             y="0"
             x="0 4.7249999 9.4499998 14.175 18.9 23.625 28.35 33.075001 37.799999 42.525002 47.25 51.974998 56.700001 61.424999 66.150002 70.875 75.599998 80.324997 85.050003 89.775002">output text (tagged)</tspan></text>
</g><path
         id="path154"
         style="fill:none;stroke:#000000;stroke-width:5.625;stroke-linecap:butt;stroke-linejoin:miter;stroke-miterlimit:1;stroke-dasharray:none;stroke-opacity:1"
         d="m 808.75,864.066 h 292.5" /><path
         id="path156"
         style="fill:#ffffff;fill-opacity:1;fill-rule:nonzero;stroke:none"
         d="m 1146.25,864.066 -45,-16.875 v 33.75" /><path
         id="path158"
         style="fill:#000000;fill-opacity:1;fill-rule:nonzero;stroke:none"
         d="m 1146.25,864.066 -45,-16.875 v 33.75" /><path
         id="path160"
         style="fill:none;stroke:#000000;stroke-width:5.625;stroke-linecap:butt;stroke-linejoin:miter;stroke-miterlimit:1;stroke-dasharray:none;stroke-opacity:1"
         d="m 2777.5,864.066 h 320.63" /><path
         id="path162"
         style="fill:#ffffff;fill-opacity:1;fill-rule:nonzero;stroke:none"
         d="m 3143.13,864.066 -45,-16.875 v 33.75" /><path
         id="path164"
         style="fill:#000000;fill-opacity:1;fill-rule:nonzero;stroke:none"
         d="m 3143.13,864.066 -45,-16.875 v 33.75" /><path
         id="path166"
         style="fill:none;stroke:#000000;stroke-width:5.625;stroke-linecap:butt;stroke-linejoin:miter;stroke-miterlimit:10;stroke-dasharray:none;stroke-opacity:1"
         d="m 21.25,20.3164 h 1462.5 v 618.75 H 21.25 Z" /><g
         transform="scale(10)"
         id="g168"><text
           id="text174"
           style="font-variant:normal;font-weight:normal;font-size:7.875px;font-family:'Courier 10 Pitch';-inkscape-font-specification:Courier;writing-mode:lr-tb;fill:#000000;fill-opacity:1;fill-rule:nonzero;stroke:none"
           transform="matrix(1,0,0,-1,232.75,131.407)"><tspan
             id="tspan170"
             y="0"
             x="0 4.7249999 9.4499998 14.175 18.9 23.625 28.35 33.075001 37.799999 42.525002 47.25 51.974998 56.700001 61.424999 66.150002 70.875 75.599998 80.324997 85.050003 89.775002 94.5 99.224998 103.95 108.675 113.4 118.125 122.85 127.575 132.3 137.02499 141.75 146.47501">HMM definition and probabilities</tspan><tspan
             id="tspan172"
             y="-182.813"
             x="-227.813 -223.088 -218.36301 -213.638 -208.91299 -204.188 -199.463 -194.73801 -190.013 -185.28799 -180.563 -175.838 -171.11301 -166.388 -161.66299 -156.938 -152.213">tagset definition</tspan></text>
</g><path
         id="path176"
         style="fill:none;stroke:#000000;stroke-width:5.625;stroke-linecap:butt;stroke-linejoin:miter;stroke-miterlimit:10;stroke-dasharray:67.5, 22.5;stroke-dashoffset:0;stroke-opacity:1"
         d="m 105.625,104.691 h 281.25 v 84.375 h -281.25 z" /><g
         transform="scale(10)"
         id="g178"><text
           id="text182"
           style="font-variant:normal;font-weight:normal;font-size:7.875px;font-family:'Courier 10 Pitch';-inkscape-font-specification:Courier;writing-mode:lr-tb;fill:#000000;fill-opacity:1;fill-rule:nonzero;stroke:none"
           transform="matrix(1,0,0,-1,44.3125,10.4691)"><tspan
             id="tspan180"
             y="0"
             x="0 4.7249999 9.4499998 14.175 18.9 23.625 28.35 33.075001 37.799999">optional </tspan></text>
</g></g></g></svg>