<?xml version="1.0" encoding="UTF-8" standalone="no"?>
<svg
   xmlns:dc="http://purl.org/dc/elements/1.1/"
   xmlns:cc="http://creativecommons.org/ns#"
   xmlns:rdf="http://www.w3.org/1999/02/22-rdf-syntax-ns#"
   xmlns:svg="http://www.w3.org/2000/svg"
   xmlns="http://www.w3.org/2000/svg"
   viewBox="0 0 246.66667 114.66667"
   height="114.66667"
   width="246.66667"
   xml:space="preserve"
   id="svg2"
   version="1.1"><metadata
     id="metadata8"><rdf:RDF><cc:Work
         rdf:about=""><dc:format>image/svg+xml</dc:format><dc:type
           rdf:resource="http://purl.org/dc/dcmitype/StillImage" /></cc:Work></rdf:RDF></metadata><defs
     id="defs6" /><g
     transform="matrix(1.3333333,0,0,-1.3333333,0,114.66667)"
     id="g10"><g
       transform="scale(0.1)"
       id="g12"><path
         id="path14"
         style="fill:#ffffff;fill-opacity:1;fill-rule:nonzero;stroke:none"
         d="m 300.355,419.52 c 0,39.296 -31.859,71.156 -71.156,71.156 -39.297,0 -71.152,-31.86 -71.152,-71.156 0,-39.297 31.855,-71.157 71.152,-71.157 39.297,0 71.156,31.86 71.156,71.157" /><path
         id="path16"
         style="fill:none;stroke:#000000;stroke-width:10.75969982;stroke-linecap:butt;stroke-linejoin:miter;stroke-miterlimit:10;stroke-dasharray:none;stroke-opacity:1"
         d="m 300.355,419.52 c 0,39.296 -31.859,71.156 -71.156,71.156 -39.297,0 -71.152,-31.86 -71.152,-71.156 0,-39.297 31.855,-71.157 71.152,-71.157 39.297,0 71.156,31.86 71.156,71.157 z" /><path
         id="path18"
         style="fill:#ffffff;fill-opacity:1;fill-rule:nonzero;stroke:none"
         d="m 810.836,760.082 c 0,39.297 -31.859,71.152 -71.156,71.152 -39.297,0 -71.157,-31.855 -71.157,-71.152 0,-39.297 31.86,-71.156 71.157,-71.156 39.297,0 71.156,31.859 71.156,71.156" /><path
         id="path20"
         style="fill:none;stroke:#000000;stroke-width:10.75969982;stroke-linecap:butt;stroke-linejoin:miter;stroke-miterlimit:10;stroke-dasharray:none;stroke-opacity:1"
         d="m 810.836,760.082 c 0,39.297 -31.859,71.152 -71.156,71.152 -39.297,0 -71.157,-31.855 -71.157,-71.152 0,-39.297 31.86,-71.156 71.157,-71.156 39.297,0 71.156,31.859 71.156,71.156 z" /><path
         id="path22"
         style="fill:#ffffff;fill-opacity:1;fill-rule:nonzero;stroke:none"
         d="m 810.836,79.6797 c 0,39.2973 -31.859,71.1563 -71.156,71.1563 -39.297,0 -71.157,-31.859 -71.157,-71.1563 0,-39.2969 31.86,-71.15626 71.157,-71.15626 39.297,0 71.156,31.85936 71.156,71.15626" /><path
         id="path24"
         style="fill:none;stroke:#000000;stroke-width:10.75969982;stroke-linecap:butt;stroke-linejoin:miter;stroke-miterlimit:10;stroke-dasharray:none;stroke-opacity:1"
         d="m 810.836,79.6797 c 0,39.2973 -31.859,71.1563 -71.156,71.1563 -39.297,0 -71.157,-31.859 -71.157,-71.1563 0,-39.2969 31.86,-71.15626 71.157,-71.15626 39.297,0 71.156,31.85936 71.156,71.15626 z" /><path
         id="path26"
         style="fill:#ffffff;fill-opacity:1;fill-rule:nonzero;stroke:none"
         d="m 1320.59,760.082 c 0,39.297 -31.85,71.152 -71.15,71.152 -39.3,0 -71.15,-31.855 -71.15,-71.152 0,-39.297 31.85,-71.156 71.15,-71.156 39.3,0 71.15,31.859 71.15,71.156" /><path
         id="path28"
         style="fill:none;stroke:#000000;stroke-width:10.75969982;stroke-linecap:butt;stroke-linejoin:miter;stroke-miterlimit:10;stroke-dasharray:none;stroke-opacity:1"
         d="m 1320.59,760.082 c 0,39.297 -31.85,71.152 -71.15,71.152 -39.3,0 -71.15,-31.855 -71.15,-71.152 0,-39.297 31.85,-71.156 71.15,-71.156 39.3,0 71.15,31.859 71.15,71.156 z" /><path
         id="path30"
         style="fill:#ffffff;fill-opacity:1;fill-rule:nonzero;stroke:none"
         d="m 1836.45,419.52 c 0,42.265 -34.26,76.535 -76.53,76.535 -42.26,0 -76.53,-34.27 -76.53,-76.535 0,-42.266 34.27,-76.536 76.53,-76.536 42.27,0 76.53,34.27 76.53,76.536" /><path
         id="path32"
         style="fill:none;stroke:#000000;stroke-width:17.2154007;stroke-linecap:butt;stroke-linejoin:miter;stroke-miterlimit:10;stroke-dasharray:none;stroke-opacity:1"
         d="m 1836.45,419.52 c 0,42.265 -34.26,76.535 -76.53,76.535 -42.26,0 -76.53,-34.27 -76.53,-76.535 0,-42.266 34.27,-76.536 76.53,-76.536 42.27,0 76.53,34.27 76.53,76.536 z" /><path
         id="path34"
         style="fill:none;stroke:#ffffff;stroke-width:4.30380011;stroke-linecap:butt;stroke-linejoin:miter;stroke-miterlimit:10;stroke-dasharray:none;stroke-opacity:1"
         d="m 1836.45,419.52 c 0,42.265 -34.26,76.535 -76.53,76.535 -42.26,0 -76.53,-34.27 -76.53,-76.535 0,-42.266 34.27,-76.536 76.53,-76.536 42.27,0 76.53,34.27 76.53,76.536 z" /><path
         id="path36"
         style="fill:#ffffff;fill-opacity:1;fill-rule:nonzero;stroke:none"
         d="m 1320.59,79.6797 c 0,39.2973 -31.85,71.1563 -71.15,71.1563 -39.3,0 -71.15,-31.859 -71.15,-71.1563 0,-39.2969 31.85,-71.15626 71.15,-71.15626 39.3,0 71.15,31.85936 71.15,71.15626" /><path
         id="path38"
         style="fill:none;stroke:#000000;stroke-width:10.75969982;stroke-linecap:butt;stroke-linejoin:miter;stroke-miterlimit:10;stroke-dasharray:none;stroke-opacity:1"
         d="m 1320.59,79.6797 c 0,39.2973 -31.85,71.1563 -71.15,71.1563 -39.3,0 -71.15,-31.859 -71.15,-71.1563 0,-39.2969 31.85,-71.15626 71.15,-71.15626 39.3,0 71.15,31.85936 71.15,71.15626 z" /><path
         id="path40"
         style="fill:#000000;fill-opacity:1;fill-rule:nonzero;stroke:none"
         d="m 110.82,404.574 41.844,14.946 -41.844,14.945 4.188,-14.945" /><path
         id="path42"
         style="fill:none;stroke:#000000;stroke-width:5.97758007;stroke-linecap:butt;stroke-linejoin:miter;stroke-miterlimit:10;stroke-dasharray:none;stroke-opacity:1"
         d="M -0.40625,419.52 H 115.008" /><path
         id="path44"
         style="fill:#000000;fill-opacity:1;fill-rule:nonzero;stroke:none"
         d="m 649.5,681.953 26.512,35.652 -43.102,-10.789 11.778,-10.109" /><path
         id="path46"
         style="fill:none;stroke:#000000;stroke-width:5.97758007;stroke-linecap:butt;stroke-linejoin:miter;stroke-miterlimit:10;stroke-dasharray:none;stroke-opacity:1"
         d="M 292.867,461.996 644.688,696.707" /><g
         transform="scale(10)"
         id="g48"><text
           id="text52"
           style="font-variant:normal;font-weight:normal;font-size:10.16189957px;font-family:CMMI10;-inkscape-font-specification:CMMI10;writing-mode:lr-tb;fill:#000000;fill-opacity:1;fill-rule:nonzero;stroke:none"
           transform="matrix(1,0,0,-1,27.2078,61.5129)"><tspan
             id="tspan50"
             y="0"
             x="0">z</tspan></text>
<text
           id="text56"
           style="font-variant:normal;font-weight:normal;font-size:10.16189957px;font-family:CMR10;-inkscape-font-specification:CMR10;writing-mode:lr-tb;fill:#000000;fill-opacity:1;fill-rule:nonzero;stroke:none"
           transform="matrix(1,0,0,-1,35.16366,61.5129)"><tspan
             id="tspan54"
             y="0"
             x="0">:</tspan></text>
<text
           id="text60"
           style="font-variant:normal;font-weight:normal;font-size:10.16189957px;font-family:CMBX10;-inkscape-font-specification:CMBX10;writing-mode:lr-tb;fill:#000000;fill-opacity:1;fill-rule:nonzero;stroke:none"
           transform="matrix(1,0,0,-1,40.79413,61.5129)"><tspan
             id="tspan58"
             y="0"
             x="0">n</tspan></text>
</g><path
         id="path62"
         style="fill:#000000;fill-opacity:1;fill-rule:nonzero;stroke:none"
         d="m 632.859,132.84 43.114,-10.746 -26.551,35.625 -4.797,-14.758" /><path
         id="path64"
         style="fill:none;stroke:#000000;stroke-width:5.97758007;stroke-linecap:butt;stroke-linejoin:miter;stroke-miterlimit:10;stroke-dasharray:none;stroke-opacity:1"
         d="M 292.91,377.109 644.625,142.961" /><g
         transform="scale(10)"
         id="g66"><text
           id="text70"
           style="font-variant:normal;font-weight:normal;font-size:10.16189957px;font-family:CMMI10;-inkscape-font-specification:CMMI10;writing-mode:lr-tb;fill:#000000;fill-opacity:1;fill-rule:nonzero;stroke:none"
           transform="matrix(1,0,0,-1,27.8809,18.0133)"><tspan
             id="tspan68"
             y="0"
             x="0">c</tspan></text>
<text
           id="text74"
           style="font-variant:normal;font-weight:normal;font-size:10.16189957px;font-family:CMR10;-inkscape-font-specification:CMR10;writing-mode:lr-tb;fill:#000000;fill-opacity:1;fill-rule:nonzero;stroke:none"
           transform="matrix(1,0,0,-1,35.10238,18.0133)"><tspan
             id="tspan72"
             y="0"
             x="0">:</tspan></text>
<text
           id="text78"
           style="font-variant:normal;font-weight:normal;font-size:10.16189957px;font-family:CMBX10;-inkscape-font-specification:CMBX10;writing-mode:lr-tb;fill:#000000;fill-opacity:1;fill-rule:nonzero;stroke:none"
           transform="matrix(1,0,0,-1,40.73285,18.0133)"><tspan
             id="tspan76"
             y="0"
             x="0">n</tspan></text>
</g><path
         id="path80"
         style="fill:#000000;fill-opacity:1;fill-rule:nonzero;stroke:none"
         d="m 1131.06,745.137 41.85,14.945 -41.85,14.941 4.19,-14.945" /><path
         id="path82"
         style="fill:none;stroke:#000000;stroke-width:5.97758007;stroke-linecap:butt;stroke-linejoin:miter;stroke-miterlimit:10;stroke-dasharray:none;stroke-opacity:1"
         d="M 816.215,760.082 H 1135.25" /><g
         transform="scale(10)"
         id="g84"><text
           id="text88"
           style="font-variant:normal;font-weight:normal;font-size:10.16189957px;font-family:CMMI10;-inkscape-font-specification:CMMI10;writing-mode:lr-tb;fill:#000000;fill-opacity:1;fill-rule:nonzero;stroke:none"
           transform="matrix(1,0,0,-1,86.0086,78.6984)"><tspan
             id="tspan86"
             y="0"
             x="0">θ</tspan></text>
<text
           id="text92"
           style="font-variant:normal;font-weight:normal;font-size:10.16189957px;font-family:CMR10;-inkscape-font-specification:CMR10;writing-mode:lr-tb;fill:#000000;fill-opacity:1;fill-rule:nonzero;stroke:none"
           transform="matrix(1,0,0,-1,93.96446,78.6984)"><tspan
             id="tspan90"
             y="0"
             x="0">:</tspan></text>
<text
           id="text96"
           style="font-variant:normal;font-weight:normal;font-size:10.16189957px;font-family:CMBX10;-inkscape-font-specification:CMBX10;writing-mode:lr-tb;fill:#000000;fill-opacity:1;fill-rule:nonzero;stroke:none"
           transform="matrix(1,0,0,-1,99.59493,78.6984)"><tspan
             id="tspan94"
             y="0"
             x="0">m</tspan></text>
</g><path
         id="path98"
         style="fill:#000000;fill-opacity:1;fill-rule:nonzero;stroke:none"
         d="m 1650.46,474.578 43.11,-10.793 -26.52,35.653 -4.81,-14.75" /><path
         id="path100"
         style="fill:none;stroke:#000000;stroke-width:5.97758007;stroke-linecap:butt;stroke-linejoin:miter;stroke-miterlimit:10;stroke-dasharray:none;stroke-opacity:1"
         d="M 1313.11,717.605 1662.24,484.688" /><g
         transform="scale(10)"
         id="g102"><text
           id="text106"
           style="font-variant:normal;font-weight:normal;font-size:10.16189957px;font-family:CMMI10;-inkscape-font-specification:CMMI10;writing-mode:lr-tb;fill:#000000;fill-opacity:1;fill-rule:nonzero;stroke:none"
           transform="matrix(1,0,0,-1,147.126,66.4148)"><tspan
             id="tspan104"
             y="0"
             x="0">θ</tspan></text>
<text
           id="text110"
           style="font-variant:normal;font-weight:normal;font-size:10.16189957px;font-family:CMR10;-inkscape-font-specification:CMR10;writing-mode:lr-tb;fill:#000000;fill-opacity:1;fill-rule:nonzero;stroke:none"
           transform="matrix(1,0,0,-1,155.08186,66.4148)"><tspan
             id="tspan108"
             y="0"
             x="0">:</tspan></text>
<text
           id="text114"
           style="font-variant:normal;font-weight:normal;font-size:10.16189957px;font-family:CMBX10;-inkscape-font-specification:CMBX10;writing-mode:lr-tb;fill:#000000;fill-opacity:1;fill-rule:nonzero;stroke:none"
           transform="matrix(1,0,0,-1,160.71233,66.4148)"><tspan
             id="tspan112"
             y="0"
             x="0 4.6552138">sg</tspan></text>
</g><path
         id="path116"
         style="fill:#000000;fill-opacity:1;fill-rule:nonzero;stroke:none"
         d="m 1131.06,64.7344 41.85,14.9453 -41.85,14.9453 4.19,-14.9453" /><path
         id="path118"
         style="fill:none;stroke:#000000;stroke-width:5.97758007;stroke-linecap:butt;stroke-linejoin:miter;stroke-miterlimit:10;stroke-dasharray:none;stroke-opacity:1"
         d="M 816.215,79.6797 H 1135.25" /><g
         transform="scale(10)"
         id="g120"><text
           id="text124"
           style="font-variant:normal;font-weight:normal;font-size:10.16189957px;font-family:CMMI10;-inkscape-font-specification:CMMI10;writing-mode:lr-tb;fill:#000000;fill-opacity:1;fill-rule:nonzero;stroke:none"
           transform="matrix(1,0,0,-1,86.1527,10.684)"><tspan
             id="tspan122"
             y="0"
             x="0">e</tspan></text>
<text
           id="text128"
           style="font-variant:normal;font-weight:normal;font-size:10.16189957px;font-family:CMR10;-inkscape-font-specification:CMR10;writing-mode:lr-tb;fill:#000000;fill-opacity:1;fill-rule:nonzero;stroke:none"
           transform="matrix(1,0,0,-1,93.74137,10.684)"><tspan
             id="tspan126"
             y="0"
             x="0">:</tspan></text>
<text
           id="text132"
           style="font-variant:normal;font-weight:normal;font-size:10.16189957px;font-family:CMBX10;-inkscape-font-specification:CMBX10;writing-mode:lr-tb;fill:#000000;fill-opacity:1;fill-rule:nonzero;stroke:none"
           transform="matrix(1,0,0,-1,99.37184,10.684)"><tspan
             id="tspan130"
             y="0"
             x="0">m</tspan></text>
</g><path
         id="path134"
         style="fill:#000000;fill-opacity:1;fill-rule:nonzero;stroke:none"
         d="m 1666.98,339.691 26.54,35.629 -43.11,-10.75 11.77,-10.121" /><path
         id="path136"
         style="fill:none;stroke:#000000;stroke-width:5.97758007;stroke-linecap:butt;stroke-linejoin:miter;stroke-miterlimit:10;stroke-dasharray:none;stroke-opacity:1"
         d="m 1313.15,122.094 349.03,232.355" /><g
         transform="scale(10)"
         id="g138"><text
           id="text142"
           style="font-variant:normal;font-weight:normal;font-size:10.16189957px;font-family:CMMI10;-inkscape-font-specification:CMMI10;writing-mode:lr-tb;fill:#000000;fill-opacity:1;fill-rule:nonzero;stroke:none"
           transform="matrix(1,0,0,-1,147.227,12.5582)"><tspan
             id="tspan140"
             y="0"
             x="0">s</tspan></text>
<text
           id="text146"
           style="font-variant:normal;font-weight:normal;font-size:10.16189957px;font-family:CMR10;-inkscape-font-specification:CMR10;writing-mode:lr-tb;fill:#000000;fill-opacity:1;fill-rule:nonzero;stroke:none"
           transform="matrix(1,0,0,-1,154.81567,12.5582)"><tspan
             id="tspan144"
             y="0"
             x="0">:</tspan></text>
<text
           id="text150"
           style="font-variant:normal;font-weight:normal;font-size:10.16189957px;font-family:CMBX10;-inkscape-font-specification:CMBX10;writing-mode:lr-tb;fill:#000000;fill-opacity:1;fill-rule:nonzero;stroke:none"
           transform="matrix(1,0,0,-1,160.44614,12.5582)"><tspan
             id="tspan148"
             y="0"
             x="0 6.4883513">pl</tspan></text>
</g></g></g></svg>