<?xml version="1.0" encoding="UTF-8" standalone="no"?>
<svg
   xmlns:dc="http://purl.org/dc/elements/1.1/"
   xmlns:cc="http://creativecommons.org/ns#"
   xmlns:rdf="http://www.w3.org/1999/02/22-rdf-syntax-ns#"
   xmlns:svg="http://www.w3.org/2000/svg"
   xmlns="http://www.w3.org/2000/svg"
   viewBox="0 0 469.33334 150.66667"
   height="150.66667"
   width="469.33334"
   xml:space="preserve"
   id="svg2"
   version="1.1"><metadata
     id="metadata8"><rdf:RDF><cc:Work
         rdf:about=""><dc:format>image/svg+xml</dc:format><dc:type
           rdf:resource="http://purl.org/dc/dcmitype/StillImage" /></cc:Work></rdf:RDF></metadata><defs
     id="defs6" /><g
     transform="matrix(1.3333333,0,0,-1.3333333,0,150.66667)"
     id="g10"><g
       transform="scale(0.1)"
       id="g12"><path
         id="path14"
         style="fill:#ffffff;fill-opacity:1;fill-rule:nonzero;stroke:none"
         d="m 300.836,599.602 c 0,39.296 -31.859,71.152 -71.156,71.152 -39.297,0 -71.157,-31.856 -71.157,-71.152 0,-39.297 31.86,-71.157 71.157,-71.157 39.297,0 71.156,31.86 71.156,71.157" /><path
         id="path16"
         style="fill:none;stroke:#000000;stroke-width:10.75969982;stroke-linecap:butt;stroke-linejoin:miter;stroke-miterlimit:10;stroke-dasharray:none;stroke-opacity:1"
         d="m 300.836,599.602 c 0,39.296 -31.859,71.152 -71.156,71.152 -39.297,0 -71.157,-31.856 -71.157,-71.152 0,-39.297 31.86,-71.157 71.157,-71.157 39.297,0 71.156,31.86 71.156,71.157 z" /><path
         id="path18"
         style="fill:#ffffff;fill-opacity:1;fill-rule:nonzero;stroke:none"
         d="m 788.059,429.68 v 0 c 0,53.386 43.281,96.668 96.668,96.668 h 730.523 c 53.39,0 96.67,-43.282 96.67,-96.668 v 0 c 0,-53.387 -43.28,-96.668 -96.67,-96.668 H 884.727 c -53.387,0 -96.668,43.281 -96.668,96.668" /><path
         id="path20"
         style="fill:none;stroke:#000000;stroke-width:10.75969982;stroke-linecap:butt;stroke-linejoin:miter;stroke-miterlimit:10;stroke-dasharray:none;stroke-opacity:1"
         d="m 788.059,429.68 v 0 c 0,53.386 43.281,96.668 96.668,96.668 h 730.523 c 53.39,0 96.67,-43.282 96.67,-96.668 v 0 c 0,-53.387 -43.28,-96.668 -96.67,-96.668 H 884.727 c -53.387,0 -96.668,43.281 -96.668,96.668 z" /><g
         transform="scale(10)"
         id="g22"><text
           id="text26"
           style="font-variant:normal;font-weight:normal;font-size:10.16189957px;font-family:CMR10;-inkscape-font-specification:CMR10;writing-mode:lr-tb;fill:#000000;fill-opacity:1;fill-rule:nonzero;stroke:none"
           transform="matrix(1,0,0,-1,79.3367,40.3977)"><tspan
             id="tspan24"
             y="0"
             x="0 3.4238236 8.5646305 12.607251 17.131567">-aren</tspan></text>
<text
           id="text30"
           style="font-variant:normal;font-weight:normal;font-size:10.16189957px;font-family:CMBX10;-inkscape-font-specification:CMBX10;writing-mode:lr-tb;fill:#000000;fill-opacity:1;fill-rule:nonzero;stroke:none"
           transform="matrix(1,0,0,-1,105.4078,40.3977)"><tspan
             id="tspan28"
             y="0"
             x="0 6.4883513 11.873165 20.194288 24.849503 34.64167 47.611458 53.486652 58.871468">detsg+gen</tspan></text>
</g><path
         id="path32"
         style="fill:#ffffff;fill-opacity:1;fill-rule:nonzero;stroke:none"
         d="m 837.02,769.52 v 0 c 0,53.386 43.281,96.668 96.668,96.668 h 632.772 c 53.38,0 96.67,-43.282 96.67,-96.668 v 0 c 0,-53.387 -43.29,-96.668 -96.67,-96.668 H 933.688 c -53.387,0 -96.668,43.281 -96.668,96.668" /><path
         id="path34"
         style="fill:none;stroke:#000000;stroke-width:10.75969982;stroke-linecap:butt;stroke-linejoin:miter;stroke-miterlimit:10;stroke-dasharray:none;stroke-opacity:1"
         d="m 837.02,769.52 v 0 c 0,53.386 43.281,96.668 96.668,96.668 h 632.772 c 53.38,0 96.67,-43.282 96.67,-96.668 v 0 c 0,-53.387 -43.29,-96.668 -96.67,-96.668 H 933.688 c -53.387,0 -96.668,43.281 -96.668,96.668 z" /><g
         transform="scale(10)"
         id="g36"><text
           id="text40"
           style="font-variant:normal;font-weight:normal;font-size:10.16189957px;font-family:CMR10;-inkscape-font-specification:CMR10;writing-mode:lr-tb;fill:#000000;fill-opacity:1;fill-rule:nonzero;stroke:none"
           transform="matrix(1,0,0,-1,84.2328,74.5039)"><tspan
             id="tspan38"
             y="0"
             x="0 3.4238236 7.9481463">-en</tspan></text>
<text
           id="text44"
           style="font-variant:normal;font-weight:normal;font-size:10.16189957px;font-family:CMBX10;-inkscape-font-specification:CMBX10;writing-mode:lr-tb;fill:#000000;fill-opacity:1;fill-rule:nonzero;stroke:none"
           transform="matrix(1,0,0,-1,101.1238,74.5039)"><tspan
             id="tspan42"
             y="0"
             x="0 6.4883513 11.873165 20.316545 26.804897 34.022205 46.991989 52.867188 58.251999">detpl+gen</tspan></text>
</g><path
         id="path46"
         style="fill:#ffffff;fill-opacity:1;fill-rule:nonzero;stroke:none"
         d="m 2366.83,599.602 c 0,53.386 -43.28,96.664 -96.67,96.664 -53.39,0 -96.67,-43.278 -96.67,-96.664 0,-53.387 43.28,-96.668 96.67,-96.668 53.39,0 96.67,43.281 96.67,96.668" /><path
         id="path48"
         style="fill:none;stroke:#000000;stroke-width:10.75969982;stroke-linecap:butt;stroke-linejoin:miter;stroke-miterlimit:10;stroke-dasharray:none;stroke-opacity:1"
         d="m 2366.83,599.602 c 0,53.386 -43.28,96.664 -96.67,96.664 -53.39,0 -96.67,-43.278 -96.67,-96.664 0,-53.387 43.28,-96.668 96.67,-96.668 53.39,0 96.67,43.281 96.67,96.668 z" /><path
         id="path50"
         style="fill:#ffffff;fill-opacity:1;fill-rule:nonzero;stroke:none"
         d="m 2734.22,599.602 v 0 c 0,53.382 43.28,96.664 96.67,96.664 h 580.01 c 53.39,0 96.67,-43.282 96.67,-96.664 v 0 c 0,-53.387 -43.28,-96.668 -96.67,-96.668 h -580.01 c -53.39,0 -96.67,43.281 -96.67,96.668" /><path
         id="path52"
         style="fill:none;stroke:#000000;stroke-width:10.75969982;stroke-linecap:butt;stroke-linejoin:miter;stroke-miterlimit:10;stroke-dasharray:none;stroke-opacity:1"
         d="m 2734.22,599.602 v 0 c 0,53.382 43.28,96.664 96.67,96.664 h 580.01 c 53.39,0 96.67,-43.282 96.67,-96.664 v 0 c 0,-53.387 -43.28,-96.668 -96.67,-96.668 h -580.01 c -53.39,0 -96.67,43.281 -96.67,96.668 z" /><g
         transform="scale(10)"
         id="g54"><text
           id="text58"
           style="font-variant:normal;font-weight:normal;font-size:10.16189957px;font-family:CMR10;-inkscape-font-specification:CMR10;writing-mode:lr-tb;fill:#000000;fill-opacity:1;fill-rule:nonzero;stroke:none"
           transform="matrix(1,0,0,-1,273.931,57.3895)"><tspan
             id="tspan56"
             y="0"
             x="0 3.4238298">-a</tspan></text>
<text
           id="text62"
           style="font-variant:normal;font-weight:normal;font-size:10.16189957px;font-family:CMBX10;-inkscape-font-specification:CMBX10;writing-mode:lr-tb;fill:#000000;fill-opacity:1;fill-rule:nonzero;stroke:none"
           transform="matrix(1,0,0,-1,285.8037,57.3895)"><tspan
             id="tspan60"
             y="0"
             x="0 6.4883513 11.873165 20.316536 24.971737 34.641251 47.611027 53.241238 59.729588">detsg+abs</tspan></text>
</g><path
         id="path64"
         style="fill:#000000;fill-opacity:1;fill-rule:nonzero;stroke:none"
         d="m 111.301,584.656 41.844,14.946 -41.844,14.941 4.183,-14.941" /><path
         id="path66"
         style="fill:none;stroke:#000000;stroke-width:5.97758007;stroke-linecap:butt;stroke-linejoin:miter;stroke-miterlimit:10;stroke-dasharray:none;stroke-opacity:1"
         d="M 0.0742188,599.602 H 115.484" /><path
         id="path68"
         style="fill:#000000;fill-opacity:1;fill-rule:nonzero;stroke:none"
         d="m 792.781,678.223 38.821,21.617 -43.731,7.867 6.582,-14.055" /><path
         id="path70"
         style="fill:none;stroke:#000000;stroke-width:5.97758007;stroke-linecap:butt;stroke-linejoin:miter;stroke-miterlimit:10;stroke-dasharray:none;stroke-opacity:1"
         d="m 305.176,612.172 489.277,81.48" /><g
         transform="scale(10)"
         id="g72"><text
           id="text76"
           style="font-variant:normal;font-weight:normal;font-size:10.16189957px;font-family:CMMI10;-inkscape-font-specification:CMMI10;writing-mode:lr-tb;fill:#000000;fill-opacity:1;fill-rule:nonzero;stroke:none"
           transform="matrix(1,0,0,-1,42.7215,69.0703)"><tspan
             id="tspan74"
             y="0"
             x="0">θ</tspan></text>
<text
           id="text80"
           style="font-variant:normal;font-weight:normal;font-size:10.16189957px;font-family:CMR10;-inkscape-font-specification:CMR10;writing-mode:lr-tb;fill:#000000;fill-opacity:1;fill-rule:nonzero;stroke:none"
           transform="matrix(1,0,0,-1,50.55509,69.0703)"><tspan
             id="tspan78"
             y="0"
             x="0">:</tspan></text>
<text
           id="text84"
           style="font-variant:normal;font-weight:normal;font-size:10.16189957px;font-family:CMMI10;-inkscape-font-specification:CMMI10;writing-mode:lr-tb;fill:#000000;fill-opacity:1;fill-rule:nonzero;stroke:none"
           transform="matrix(1,0,0,-1,56.18556,69.0703)"><tspan
             id="tspan82"
             y="0"
             x="0">θ</tspan></text>
</g><path
         id="path86"
         style="fill:#000000;fill-opacity:1;fill-rule:nonzero;stroke:none"
         d="m 738.91,499.641 43.731,7.867 -38.821,21.613 1.672,-15.426" /><path
         id="path88"
         style="fill:none;stroke:#000000;stroke-width:5.97758007;stroke-linecap:butt;stroke-linejoin:miter;stroke-miterlimit:10;stroke-dasharray:none;stroke-opacity:1"
         d="M 305.176,587.027 745.492,513.695" /><g
         transform="scale(10)"
         id="g90"><text
           id="text94"
           style="font-variant:normal;font-weight:normal;font-size:10.16189957px;font-family:CMMI10;-inkscape-font-specification:CMMI10;writing-mode:lr-tb;fill:#000000;fill-opacity:1;fill-rule:nonzero;stroke:none"
           transform="matrix(1,0,0,-1,40.518,44.1602)"><tspan
             id="tspan92"
             y="0"
             x="0">θ</tspan></text>
<text
           id="text98"
           style="font-variant:normal;font-weight:normal;font-size:10.16189957px;font-family:CMR10;-inkscape-font-specification:CMR10;writing-mode:lr-tb;fill:#000000;fill-opacity:1;fill-rule:nonzero;stroke:none"
           transform="matrix(1,0,0,-1,48.35159,44.1602)"><tspan
             id="tspan96"
             y="0"
             x="0">:</tspan></text>
<text
           id="text102"
           style="font-variant:normal;font-weight:normal;font-size:10.16189957px;font-family:CMMI10;-inkscape-font-specification:CMMI10;writing-mode:lr-tb;fill:#000000;fill-opacity:1;fill-rule:nonzero;stroke:none"
           transform="matrix(1,0,0,-1,53.98206,44.1602)"><tspan
             id="tspan100"
             y="0"
             x="0">θ</tspan></text>
</g><path
         id="path104"
         style="fill:#000000;fill-opacity:1;fill-rule:nonzero;stroke:none"
         d="m 2125.77,608.5 43.73,7.867 -38.82,21.617 1.67,-15.429" /><path
         id="path106"
         style="fill:none;stroke:#000000;stroke-width:5.97758007;stroke-linecap:butt;stroke-linejoin:miter;stroke-miterlimit:10;stroke-dasharray:none;stroke-opacity:1"
         d="m 1668.46,699.824 463.89,-77.269" /><g
         transform="scale(10)"
         id="g108"><text
           id="text112"
           style="font-variant:normal;font-weight:normal;font-size:10.16189957px;font-family:CMMI10;-inkscape-font-specification:CMMI10;writing-mode:lr-tb;fill:#000000;fill-opacity:1;fill-rule:nonzero;stroke:none"
           transform="matrix(1,0,0,-1,182.303,70.1348)"><tspan
             id="tspan110"
             y="0"
             x="0">θ</tspan></text>
<text
           id="text116"
           style="font-variant:normal;font-weight:normal;font-size:10.16189957px;font-family:CMR10;-inkscape-font-specification:CMR10;writing-mode:lr-tb;fill:#000000;fill-opacity:1;fill-rule:nonzero;stroke:none"
           transform="matrix(1,0,0,-1,190.13659,70.1348)"><tspan
             id="tspan114"
             y="0"
             x="0">:</tspan></text>
<text
           id="text120"
           style="font-variant:normal;font-weight:normal;font-size:10.16189957px;font-family:CMMI10;-inkscape-font-specification:CMMI10;writing-mode:lr-tb;fill:#000000;fill-opacity:1;fill-rule:nonzero;stroke:none"
           transform="matrix(1,0,0,-1,195.76706,70.1348)"><tspan
             id="tspan118"
             y="0"
             x="0">θ</tspan></text>
</g><path
         id="path122"
         style="fill:#000000;fill-opacity:1;fill-rule:nonzero;stroke:none"
         d="m 2130.68,561.219 38.82,21.617 -43.73,7.867 6.58,-14.055" /><path
         id="path124"
         style="fill:none;stroke:#000000;stroke-width:5.97758007;stroke-linecap:butt;stroke-linejoin:miter;stroke-miterlimit:10;stroke-dasharray:none;stroke-opacity:1"
         d="m 1717.26,507.512 415.09,69.136" /><g
         transform="scale(10)"
         id="g126"><text
           id="text130"
           style="font-variant:normal;font-weight:normal;font-size:10.16189957px;font-family:CMMI10;-inkscape-font-specification:CMMI10;writing-mode:lr-tb;fill:#000000;fill-opacity:1;fill-rule:nonzero;stroke:none"
           transform="matrix(1,0,0,-1,184.986,43.1766)"><tspan
             id="tspan128"
             y="0"
             x="0">θ</tspan></text>
<text
           id="text134"
           style="font-variant:normal;font-weight:normal;font-size:10.16189957px;font-family:CMR10;-inkscape-font-specification:CMR10;writing-mode:lr-tb;fill:#000000;fill-opacity:1;fill-rule:nonzero;stroke:none"
           transform="matrix(1,0,0,-1,192.81959,43.1766)"><tspan
             id="tspan132"
             y="0"
             x="0">:</tspan></text>
<text
           id="text138"
           style="font-variant:normal;font-weight:normal;font-size:10.16189957px;font-family:CMMI10;-inkscape-font-specification:CMMI10;writing-mode:lr-tb;fill:#000000;fill-opacity:1;fill-rule:nonzero;stroke:none"
           transform="matrix(1,0,0,-1,198.45006,43.1766)"><tspan
             id="tspan136"
             y="0"
             x="0">θ</tspan></text>
</g><path
         id="path140"
         style="fill:#000000;fill-opacity:1;fill-rule:nonzero;stroke:none"
         d="m 256.125,715.949 -0.27,-44.429 28.356,34.207 -15.473,1.179" /><path
         id="path142"
         style="fill:none;stroke:#000000;stroke-width:5.97758007;stroke-linecap:butt;stroke-linejoin:miter;stroke-miterlimit:10;stroke-dasharray:none;stroke-opacity:1"
         d="M 2235.26,695.492 C 2066,1160.54 425.117,1136.56 268.738,706.906" /><g
         transform="scale(10)"
         id="g144"><text
           id="text148"
           style="font-variant:normal;font-weight:normal;font-size:10.16189957px;font-family:CMMI10;-inkscape-font-specification:CMMI10;writing-mode:lr-tb;fill:#000000;fill-opacity:1;fill-rule:nonzero;stroke:none"
           transform="matrix(1,0,0,-1,115.107,106.04)"><tspan
             id="tspan146"
             y="0"
             x="0">θ</tspan></text>
<text
           id="text152"
           style="font-variant:normal;font-weight:normal;font-size:10.16189957px;font-family:CMR10;-inkscape-font-specification:CMR10;writing-mode:lr-tb;fill:#000000;fill-opacity:1;fill-rule:nonzero;stroke:none"
           transform="matrix(1,0,0,-1,122.94059,106.04)"><tspan
             id="tspan150"
             y="0"
             x="0">:</tspan></text>
<text
           id="text156"
           style="font-variant:normal;font-weight:normal;font-size:10.16189957px;font-family:CMMI10;-inkscape-font-specification:CMMI10;writing-mode:lr-tb;fill:#000000;fill-opacity:1;fill-rule:nonzero;stroke:none"
           transform="matrix(1,0,0,-1,128.57106,106.04)"><tspan
             id="tspan154"
             y="0"
             x="0">θ</tspan></text>
</g><path
         id="path158"
         style="fill:#000000;fill-opacity:1;fill-rule:nonzero;stroke:none"
         d="m 2686.96,584.656 41.84,14.946 -41.84,14.941 4.18,-14.941" /><path
         id="path160"
         style="fill:none;stroke:#000000;stroke-width:5.97758007;stroke-linecap:butt;stroke-linejoin:miter;stroke-miterlimit:10;stroke-dasharray:none;stroke-opacity:1"
         d="m 2372.21,599.602 h 318.93" /><g
         transform="scale(10)"
         id="g162"><text
           id="text166"
           style="font-variant:normal;font-weight:normal;font-size:10.16189957px;font-family:CMMI10;-inkscape-font-specification:CMMI10;writing-mode:lr-tb;fill:#000000;fill-opacity:1;fill-rule:nonzero;stroke:none"
           transform="matrix(1,0,0,-1,243.979,62.6504)"><tspan
             id="tspan164"
             y="0"
             x="0">θ</tspan></text>
<text
           id="text170"
           style="font-variant:normal;font-weight:normal;font-size:10.16189957px;font-family:CMR10;-inkscape-font-specification:CMR10;writing-mode:lr-tb;fill:#000000;fill-opacity:1;fill-rule:nonzero;stroke:none"
           transform="matrix(1,0,0,-1,251.81259,62.6504)"><tspan
             id="tspan168"
             y="0"
             x="0">:</tspan></text>
<text
           id="text174"
           style="font-variant:normal;font-weight:normal;font-size:10.16189957px;font-family:CMMI10;-inkscape-font-specification:CMMI10;writing-mode:lr-tb;fill:#000000;fill-opacity:1;fill-rule:nonzero;stroke:none"
           transform="matrix(1,0,0,-1,257.44306,62.6504)"><tspan
             id="tspan172"
             y="0"
             x="0">θ</tspan></text>
</g><path
         id="path176"
         style="fill:#000000;fill-opacity:1;fill-rule:nonzero;stroke:none"
         d="m 3083.44,453.121 0.27,44.434 -28.35,-34.211 15.47,-1.18" /><path
         id="path178"
         style="fill:none;stroke:#000000;stroke-width:5.97758007;stroke-linecap:butt;stroke-linejoin:miter;stroke-miterlimit:10;stroke-dasharray:none;stroke-opacity:1"
         d="M 255.855,527.68 C 497.668,-136.688 2841.9,-166.813 3070.83,462.164" /><g
         transform="scale(10)"
         id="g180"><text
           id="text184"
           style="font-variant:normal;font-weight:normal;font-size:10.16189957px;font-family:CMMI10;-inkscape-font-specification:CMMI10;writing-mode:lr-tb;fill:#000000;fill-opacity:1;fill-rule:nonzero;stroke:none"
           transform="matrix(1,0,0,-1,157.831,4.23125)"><tspan
             id="tspan182"
             y="0"
             x="0">θ</tspan></text>
<text
           id="text188"
           style="font-variant:normal;font-weight:normal;font-size:10.16189957px;font-family:CMR10;-inkscape-font-specification:CMR10;writing-mode:lr-tb;fill:#000000;fill-opacity:1;fill-rule:nonzero;stroke:none"
           transform="matrix(1,0,0,-1,165.66459,4.23125)"><tspan
             id="tspan186"
             y="0"
             x="0">:</tspan></text>
<text
           id="text192"
           style="font-variant:normal;font-weight:normal;font-size:10.16189957px;font-family:CMMI10;-inkscape-font-specification:CMMI10;writing-mode:lr-tb;fill:#000000;fill-opacity:1;fill-rule:nonzero;stroke:none"
           transform="matrix(1,0,0,-1,171.29506,4.23125)"><tspan
             id="tspan190"
             y="0"
             x="0">θ</tspan></text>
</g></g></g></svg>