<?xml version="1.0" encoding="UTF-8" standalone="no"?>
<!DOCTYPE svg PUBLIC "-//W3C//DTD SVG 1.1//EN"
 "http://www.w3.org/Graphics/SVG/1.1/DTD/svg11.dtd">
<!-- Generated by graphviz version 2.38.0 (20140413.2041)
 -->
<!-- Title: G Pages: 1 -->
<svg width="864pt" height="467pt"
 viewBox="0.00 0.00 864.00 467.20" xmlns="http://www.w3.org/2000/svg" xmlns:xlink="http://www.w3.org/1999/xlink">
<g id="graph0" class="graph" transform="scale(0.45264 0.45264) rotate(0) translate(4 1028.16)">
<title>G</title>
<polygon fill="white" stroke="none" points="-4,4 -4,-1028.16 1904.8,-1028.16 1904.8,4 -4,4"/>
<!-- afr -->
<g id="node1" class="node"><title>afr</title>
<ellipse fill="none" stroke="black" cx="43.8406" cy="-976.784" rx="39.6962" ry="39.6962"/>
<text text-anchor="middle" x="43.8406" y="-967.984" font-family="Times,serif" font-size="36.00">afr</text>
</g>
<!-- nld -->
<g id="node2" class="node"><title>nld</title>
<ellipse fill="none" stroke="black" cx="43.8406" cy="-836.84" rx="43.6818" ry="43.6818"/>
<text text-anchor="middle" x="43.8406" y="-828.04" font-family="Times,serif" font-size="36.00">nld</text>
</g>
<!-- afr&#45;&gt;nld -->
<g id="edge1" class="edge"><title>afr&#45;&gt;nld</title>
<path fill="none" stroke="black" d="M43.8406,-916.667C43.8406,-911.474 43.8406,-906.205 43.8406,-900.98"/>
<polygon fill="black" stroke="black" points="36.8407,-916.992 43.8406,-936.992 50.8407,-916.992 36.8407,-916.992"/>
<polygon fill="black" stroke="black" points="50.8407,-900.698 43.8406,-880.698 36.8407,-900.698 50.8407,-900.698"/>
</g>
<!-- arg -->
<g id="node3" class="node"><title>arg</title>
<ellipse fill="none" stroke="black" cx="357.841" cy="-420.541" rx="43.6818" ry="43.6818"/>
<text text-anchor="middle" x="357.841" y="-411.741" font-family="Times,serif" font-size="36.00">arg</text>
</g>
<!-- cat -->
<g id="node4" class="node"><title>cat</title>
<ellipse fill="none" stroke="black" cx="321.841" cy="-282.011" rx="41.0244" ry="41.0244"/>
<text text-anchor="middle" x="321.841" y="-273.211" font-family="Times,serif" font-size="36.00">cat</text>
</g>
<!-- arg&#45;&gt;cat -->
<g id="edge2" class="edge"><title>arg&#45;&gt;cat</title>
<path fill="none" stroke="black" d="M341.707,-358.353C340.236,-352.777 338.749,-347.137 337.285,-341.585"/>
<polygon fill="black" stroke="black" points="334.976,-360.281 346.844,-377.836 348.513,-356.712 334.976,-360.281"/>
<polygon fill="black" stroke="black" points="344.023,-339.683 332.155,-322.129 330.486,-343.253 344.023,-339.683"/>
</g>
<!-- ita -->
<g id="node9" class="node"><title>ita</title>
<ellipse fill="none" stroke="black" cx="386.841" cy="-159.037" rx="36.5405" ry="36.5405"/>
<text text-anchor="middle" x="386.841" y="-150.237" font-family="Times,serif" font-size="36.00">ita</text>
</g>
<!-- cat&#45;&gt;ita -->
<g id="edge5" class="edge"><title>cat&#45;&gt;ita</title>
<path fill="none" stroke="black" d="M350.637,-227.417C357.187,-215.226 363.941,-202.655 369.816,-191.722"/>
<polygon fill="black" stroke="black" points="344.291,-224.438 340.991,-245.369 356.624,-231.064 344.291,-224.438"/>
</g>
<!-- srd -->
<g id="node10" class="node"><title>srd</title>
<ellipse fill="none" stroke="black" cx="353.841" cy="-43.1335" rx="43.2674" ry="43.2674"/>
<text text-anchor="middle" x="353.841" y="-34.3335" font-family="Times,serif" font-size="36.00">srd</text>
</g>
<!-- cat&#45;&gt;srd -->
<g id="edge6" class="edge"><title>cat&#45;&gt;srd</title>
<path fill="none" stroke="black" d="M326.1,-241.149C329.659,-209.005 335.066,-162.658 340.841,-122.267 341.608,-116.901 342.447,-111.334 343.318,-105.756"/>
<polygon fill="black" stroke="black" points="350.255,-106.706 346.538,-85.8446 336.435,-104.471 350.255,-106.706"/>
</g>
<!-- bel -->
<g id="node5" class="node"><title>bel</title>
<ellipse fill="none" stroke="black" cx="1206.84" cy="-976.784" rx="42.3529" ry="42.3529"/>
<text text-anchor="middle" x="1206.84" y="-967.984" font-family="Times,serif" font-size="36.00">bel</text>
</g>
<!-- rus -->
<g id="node6" class="node"><title>rus</title>
<ellipse fill="none" stroke="black" cx="1206.84" cy="-836.84" rx="43.2674" ry="43.2674"/>
<text text-anchor="middle" x="1206.84" y="-828.04" font-family="Times,serif" font-size="36.00">rus</text>
</g>
<!-- bel&#45;&gt;rus -->
<g id="edge3" class="edge"><title>bel&#45;&gt;rus</title>
<path fill="none" stroke="black" d="M1206.84,-913.672C1206.84,-909.28 1206.84,-904.85 1206.84,-900.455"/>
<polygon fill="black" stroke="black" points="1199.84,-914.022 1206.84,-934.022 1213.84,-914.022 1199.84,-914.022"/>
<polygon fill="black" stroke="black" points="1213.84,-900.414 1206.84,-880.414 1199.84,-900.414 1213.84,-900.414"/>
</g>
<!-- ukr -->
<g id="node40" class="node"><title>ukr</title>
<ellipse fill="none" stroke="black" cx="1206.84" cy="-692.652" rx="45.9239" ry="45.9239"/>
<text text-anchor="middle" x="1206.84" y="-683.852" font-family="Times,serif" font-size="36.00">ukr</text>
</g>
<!-- rus&#45;&gt;ukr -->
<g id="edge46" class="edge"><title>rus&#45;&gt;ukr</title>
<path fill="none" stroke="black" d="M1206.84,-773.352C1206.84,-768.654 1206.84,-763.906 1206.84,-759.19"/>
<polygon fill="black" stroke="black" points="1199.84,-773.564 1206.84,-793.564 1213.84,-773.564 1199.84,-773.564"/>
<polygon fill="black" stroke="black" points="1213.84,-758.985 1206.84,-738.985 1199.84,-758.985 1213.84,-758.985"/>
</g>
<!-- bre -->
<g id="node7" class="node"><title>bre</title>
<ellipse fill="none" stroke="black" cx="149.841" cy="-836.84" rx="43.6818" ry="43.6818"/>
<text text-anchor="middle" x="149.841" y="-828.04" font-family="Times,serif" font-size="36.00">bre</text>
</g>
<!-- fra -->
<g id="node8" class="node"><title>fra</title>
<ellipse fill="none" stroke="black" cx="149.841" cy="-692.652" rx="39.6962" ry="39.6962"/>
<text text-anchor="middle" x="149.841" y="-683.852" font-family="Times,serif" font-size="36.00">fra</text>
</g>
<!-- bre&#45;&gt;fra -->
<g id="edge4" class="edge"><title>bre&#45;&gt;fra</title>
<path fill="none" stroke="black" d="M149.841,-792.793C149.841,-780.241 149.841,-766.3 149.841,-752.933"/>
<polygon fill="black" stroke="black" points="156.841,-752.681 149.841,-732.681 142.841,-752.681 156.841,-752.681"/>
</g>
<!-- fra&#45;&gt;cat -->
<g id="edge27" class="edge"><title>fra&#45;&gt;cat</title>
<path fill="none" stroke="black" d="M144.555,-632.988C141.262,-564.246 145.064,-449.432 195.841,-368.215 212.4,-341.729 240.558,-321.528 266.06,-307.459"/>
<polygon fill="black" stroke="black" points="137.581,-633.636 145.791,-653.171 151.555,-632.78 137.581,-633.636"/>
<polygon fill="black" stroke="black" points="269.345,-313.641 283.957,-298.296 262.964,-301.18 269.345,-313.641"/>
</g>
<!-- spa -->
<g id="node18" class="node"><title>spa</title>
<ellipse fill="none" stroke="black" cx="462.841" cy="-556.95" rx="45.9239" ry="45.9239"/>
<text text-anchor="middle" x="462.841" y="-548.15" font-family="Times,serif" font-size="36.00">spa</text>
</g>
<!-- fra&#45;&gt;spa -->
<g id="edge28" class="edge"><title>fra&#45;&gt;spa</title>
<path fill="none" stroke="black" d="M204.243,-667.475C223.369,-659.037 245.029,-649.55 264.841,-641.034 310.693,-621.324 362.739,-599.506 401.96,-583.176"/>
<polygon fill="black" stroke="black" points="201.229,-661.154 185.77,-675.646 206.892,-673.958 201.229,-661.154"/>
<polygon fill="black" stroke="black" points="404.87,-589.547 420.65,-575.406 399.495,-576.62 404.87,-589.547"/>
</g>
<!-- ita&#45;&gt;srd -->
<g id="edge35" class="edge"><title>ita&#45;&gt;srd</title>
<path fill="none" stroke="black" d="M376.85,-123.553C375.086,-117.463 373.203,-110.966 371.304,-104.409"/>
<polygon fill="black" stroke="black" points="377.944,-102.174 365.655,-84.9121 364.497,-106.07 377.944,-102.174"/>
</g>
<!-- crh -->
<g id="node11" class="node"><title>crh</title>
<ellipse fill="none" stroke="black" cx="1310.84" cy="-976.784" rx="43.6818" ry="43.6818"/>
<text text-anchor="middle" x="1310.84" y="-967.984" font-family="Times,serif" font-size="36.00">crh</text>
</g>
<!-- tur -->
<g id="node12" class="node"><title>tur</title>
<ellipse fill="none" stroke="black" cx="1310.84" cy="-836.84" rx="39.6962" ry="39.6962"/>
<text text-anchor="middle" x="1310.84" y="-828.04" font-family="Times,serif" font-size="36.00">tur</text>
</g>
<!-- crh&#45;&gt;tur -->
<g id="edge7" class="edge"><title>crh&#45;&gt;tur</title>
<path fill="none" stroke="black" d="M1310.84,-932.894C1310.84,-921.483 1310.84,-908.955 1310.84,-896.845"/>
<polygon fill="black" stroke="black" points="1317.84,-896.489 1310.84,-876.489 1303.84,-896.489 1317.84,-896.489"/>
</g>
<!-- cym -->
<g id="node13" class="node"><title>cym</title>
<ellipse fill="none" stroke="black" cx="728.841" cy="-836.84" rx="55.3091" ry="55.3091"/>
<text text-anchor="middle" x="728.841" y="-828.04" font-family="Times,serif" font-size="36.00">cym</text>
</g>
<!-- eng -->
<g id="node14" class="node"><title>eng</title>
<ellipse fill="none" stroke="black" cx="728.841" cy="-692.652" rx="48.1667" ry="48.1667"/>
<text text-anchor="middle" x="728.841" y="-683.852" font-family="Times,serif" font-size="36.00">eng</text>
</g>
<!-- cym&#45;&gt;eng -->
<g id="edge8" class="edge"><title>cym&#45;&gt;eng</title>
<path fill="none" stroke="black" d="M728.841,-781.679C728.841,-775.008 728.841,-768.126 728.841,-761.287"/>
<polygon fill="black" stroke="black" points="735.841,-761.152 728.841,-741.152 721.841,-761.152 735.841,-761.152"/>
</g>
<!-- eng&#45;&gt;cat -->
<g id="edge11" class="edge"><title>eng&#45;&gt;cat</title>
<path fill="none" stroke="black" d="M750.144,-627.52C769.509,-555.979 786.951,-440.789 727.841,-368.215 685.015,-315.635 485.5,-294.306 382.994,-286.703"/>
<polygon fill="black" stroke="black" points="743.369,-625.752 744.559,-646.908 756.822,-629.627 743.369,-625.752"/>
<polygon fill="black" stroke="black" points="383.418,-279.716 362.978,-285.302 382.44,-293.681 383.418,-279.716"/>
</g>
<!-- eng&#45;&gt;spa -->
<g id="edge12" class="edge"><title>eng&#45;&gt;spa</title>
<path fill="none" stroke="black" d="M668.21,-661.177C624.258,-639.085 565.146,-609.373 521.626,-587.498"/>
<polygon fill="black" stroke="black" points="665.09,-667.443 686.103,-670.171 671.377,-654.934 665.09,-667.443"/>
<polygon fill="black" stroke="black" points="524.738,-581.228 503.725,-578.5 518.451,-593.737 524.738,-581.228"/>
</g>
<!-- glg -->
<g id="node19" class="node"><title>glg</title>
<ellipse fill="none" stroke="black" cx="822.841" cy="-282.011" rx="43.6818" ry="43.6818"/>
<text text-anchor="middle" x="822.841" y="-273.211" font-family="Times,serif" font-size="36.00">glg</text>
</g>
<!-- eng&#45;&gt;glg -->
<g id="edge13" class="edge"><title>eng&#45;&gt;glg</title>
<path fill="none" stroke="black" d="M776.171,-643.408C785.185,-631.688 793.47,-618.596 798.841,-605.034 832.504,-520.02 833.015,-412.622 828.953,-345.869"/>
<polygon fill="black" stroke="black" points="770.62,-639.134 763.168,-658.97 781.363,-648.111 770.62,-639.134"/>
<polygon fill="black" stroke="black" points="835.919,-345.153 827.509,-325.704 821.955,-346.153 835.919,-345.153"/>
</g>
<!-- dan -->
<g id="node15" class="node"><title>dan</title>
<ellipse fill="none" stroke="black" cx="1023.84" cy="-556.95" rx="48.1667" ry="48.1667"/>
<text text-anchor="middle" x="1023.84" y="-548.15" font-family="Times,serif" font-size="36.00">dan</text>
</g>
<!-- nno -->
<g id="node16" class="node"><title>nno</title>
<ellipse fill="none" stroke="black" cx="1099.84" cy="-420.541" rx="50.41" ry="50.41"/>
<text text-anchor="middle" x="1099.84" y="-411.741" font-family="Times,serif" font-size="36.00">nno</text>
</g>
<!-- dan&#45;&gt;nno -->
<g id="edge9" class="edge"><title>dan&#45;&gt;nno</title>
<path fill="none" stroke="black" d="M1057.23,-496.899C1059.94,-492.111 1062.68,-487.268 1065.39,-482.468"/>
<polygon fill="black" stroke="black" points="1051.01,-493.671 1047.26,-514.526 1063.2,-500.562 1051.01,-493.671"/>
<polygon fill="black" stroke="black" points="1071.56,-485.777 1075.31,-464.922 1059.37,-478.886 1071.56,-485.777"/>
</g>
<!-- nob -->
<g id="node17" class="node"><title>nob</title>
<ellipse fill="none" stroke="black" cx="1038.84" cy="-282.011" rx="50.41" ry="50.41"/>
<text text-anchor="middle" x="1038.84" y="-273.211" font-family="Times,serif" font-size="36.00">nob</text>
</g>
<!-- dan&#45;&gt;nob -->
<g id="edge10" class="edge"><title>dan&#45;&gt;nob</title>
<path fill="none" stroke="black" d="M964.224,-523.77C945.894,-510.607 927.909,-493.551 917.841,-472.867 897.484,-431.047 896.419,-409.5 917.841,-368.215 930.259,-344.282 952.83,-325.653 975.143,-312"/>
<polygon fill="black" stroke="black" points="960.379,-529.62 980.937,-534.756 968.069,-517.921 960.379,-529.62"/>
<polygon fill="black" stroke="black" points="978.76,-317.998 992.783,-302.112 971.914,-305.785 978.76,-317.998"/>
</g>
<!-- nno&#45;&gt;nob -->
<g id="edge40" class="edge"><title>nno&#45;&gt;nob</title>
<path fill="none" stroke="black" d="M1071.47,-356.046C1070.09,-352.944 1068.69,-349.829 1067.31,-346.726"/>
<polygon fill="black" stroke="black" points="1065.15,-359.053 1079.7,-374.458 1077.93,-353.342 1065.15,-359.053"/>
<polygon fill="black" stroke="black" points="1073.51,-343.452 1058.96,-328.047 1060.73,-349.163 1073.51,-343.452"/>
</g>
<!-- spa&#45;&gt;arg -->
<g id="edge18" class="edge"><title>spa&#45;&gt;arg</title>
<path fill="none" stroke="black" d="M422.633,-504.482C414.126,-493.591 405.162,-482.116 396.705,-471.291"/>
<polygon fill="black" stroke="black" points="417.149,-508.832 434.978,-520.284 428.182,-500.214 417.149,-508.832"/>
<polygon fill="black" stroke="black" points="402.213,-466.971 384.384,-455.519 391.18,-475.59 402.213,-466.971"/>
</g>
<!-- spa&#45;&gt;cat -->
<g id="edge20" class="edge"><title>spa&#45;&gt;cat</title>
<path fill="none" stroke="black" d="M398.466,-539.605C364.272,-527.289 325.2,-506.575 304.841,-472.867 280.746,-432.974 288.306,-379.517 299.984,-339.492"/>
<polygon fill="black" stroke="black" points="396.673,-546.383 417.857,-545.92 401.008,-533.071 396.673,-546.383"/>
<polygon fill="black" stroke="black" points="306.727,-341.391 306.222,-320.207 293.407,-337.082 306.727,-341.391"/>
</g>
<!-- spa&#45;&gt;ita -->
<g id="edge22" class="edge"><title>spa&#45;&gt;ita</title>
<path fill="none" stroke="black" d="M527.999,-544.576C598.481,-530.789 704.007,-505.318 727.841,-472.867 755.374,-435.38 750.601,-408.778 727.841,-368.215 666.407,-258.733 521.388,-200 441.684,-174.982"/>
<polygon fill="black" stroke="black" points="526.612,-537.714 508.264,-548.313 529.217,-551.47 526.612,-537.714"/>
<polygon fill="black" stroke="black" points="443.621,-168.255 422.452,-169.204 439.592,-181.663 443.621,-168.255"/>
</g>
<!-- spa&#45;&gt;glg -->
<g id="edge21" class="edge"><title>spa&#45;&gt;glg</title>
<path fill="none" stroke="black" d="M529.323,-554.846C596.24,-550.17 698.259,-532.769 760.841,-472.867 795.34,-439.844 810.664,-387.4 817.459,-345.991"/>
<polygon fill="black" stroke="black" points="528.514,-547.879 508.924,-555.955 529.274,-561.859 528.514,-547.879"/>
<polygon fill="black" stroke="black" points="824.404,-346.867 820.224,-326.094 810.538,-344.94 824.404,-346.867"/>
</g>
<!-- ast -->
<g id="node21" class="node"><title>ast</title>
<ellipse fill="none" stroke="black" cx="458.841" cy="-420.541" rx="39.6962" ry="39.6962"/>
<text text-anchor="middle" x="458.841" y="-411.741" font-family="Times,serif" font-size="36.00">ast</text>
</g>
<!-- spa&#45;&gt;ast -->
<g id="edge19" class="edge"><title>spa&#45;&gt;ast</title>
<path fill="none" stroke="black" d="M460.898,-490.665C460.797,-487.277 460.696,-483.882 460.596,-480.515"/>
<polygon fill="black" stroke="black" points="453.906,-491.037 461.498,-510.82 467.899,-490.621 453.906,-491.037"/>
<polygon fill="black" stroke="black" points="467.591,-480.264 459.999,-460.481 453.598,-480.681 467.591,-480.264"/>
</g>
<!-- por -->
<g id="node22" class="node"><title>por</title>
<ellipse fill="none" stroke="black" cx="562.841" cy="-420.541" rx="45.9239" ry="45.9239"/>
<text text-anchor="middle" x="562.841" y="-411.741" font-family="Times,serif" font-size="36.00">por</text>
</g>
<!-- spa&#45;&gt;por -->
<g id="edge23" class="edge"><title>spa&#45;&gt;por</title>
<path fill="none" stroke="black" d="M502.155,-503.108C509.276,-493.538 516.699,-483.559 523.812,-474"/>
<polygon fill="black" stroke="black" points="496.224,-499.353 489.902,-519.577 507.457,-507.71 496.224,-499.353"/>
<polygon fill="black" stroke="black" points="529.435,-478.168 535.758,-457.943 518.203,-469.811 529.435,-478.168"/>
</g>
<!-- ron -->
<g id="node23" class="node"><title>ron</title>
<ellipse fill="none" stroke="black" cx="672.841" cy="-420.541" rx="45.9239" ry="45.9239"/>
<text text-anchor="middle" x="672.841" y="-411.741" font-family="Times,serif" font-size="36.00">ron</text>
</g>
<!-- spa&#45;&gt;ron -->
<g id="edge24" class="edge"><title>spa&#45;&gt;ron</title>
<path fill="none" stroke="black" d="M522.739,-528.399C552.425,-513.628 588.174,-494.112 617.841,-472.867 625.698,-467.24 633.609,-460.578 640.885,-453.948"/>
<polygon fill="black" stroke="black" points="519.618,-522.134 504.691,-537.174 525.739,-534.724 519.618,-522.134"/>
</g>
<!-- epo -->
<g id="node20" class="node"><title>epo</title>
<ellipse fill="none" stroke="black" cx="356.841" cy="-836.84" rx="48.1667" ry="48.1667"/>
<text text-anchor="middle" x="356.841" y="-828.04" font-family="Times,serif" font-size="36.00">epo</text>
</g>
<!-- epo&#45;&gt;cat -->
<g id="edge14" class="edge"><title>epo&#45;&gt;cat</title>
<path fill="none" stroke="black" d="M302.589,-795.627C287.456,-781.281 272.948,-763.78 264.841,-744.271 244.128,-694.433 235.083,-511.67 274.841,-368.215 279.894,-349.982 289.522,-331.394 298.754,-316.252"/>
<polygon fill="black" stroke="black" points="298.06,-800.966 317.716,-808.88 307.286,-790.436 298.06,-800.966"/>
</g>
<!-- epo&#45;&gt;fra -->
<g id="edge17" class="edge"><title>epo&#45;&gt;fra</title>
<path fill="none" stroke="black" d="M296.717,-803.819C267.709,-787.391 232.97,-766.242 203.841,-744.271 194.71,-737.385 185.401,-729.168 177.142,-721.379"/>
<polygon fill="black" stroke="black" points="293.504,-810.042 314.385,-813.648 300.31,-797.808 293.504,-810.042"/>
</g>
<!-- epo&#45;&gt;eng -->
<g id="edge15" class="edge"><title>epo&#45;&gt;eng</title>
<path fill="none" stroke="black" d="M413.073,-797.681C423.691,-791.362 434.903,-785.255 445.841,-780.271 517.152,-747.775 603.942,-723.255 662.455,-708.741"/>
<polygon fill="black" stroke="black" points="409.2,-791.847 395.917,-808.356 416.596,-803.733 409.2,-791.847"/>
<polygon fill="black" stroke="black" points="664.113,-715.542 681.901,-704.028 660.815,-701.936 664.113,-715.542"/>
</g>
<!-- epo&#45;&gt;spa -->
<g id="edge16" class="edge"><title>epo&#45;&gt;spa</title>
<path fill="none" stroke="black" d="M380.901,-772.763C401.021,-720.017 429.165,-646.234 446.683,-600.31"/>
<polygon fill="black" stroke="black" points="374.342,-770.319 373.754,-791.5 387.422,-775.308 374.342,-770.319"/>
</g>
<!-- por&#45;&gt;cat -->
<g id="edge44" class="edge"><title>por&#45;&gt;cat</title>
<path fill="none" stroke="black" d="M515.707,-373.851C513.105,-371.872 510.475,-369.98 507.841,-368.215 467.508,-341.198 417.225,-318.743 379.112,-303.679"/>
<polygon fill="black" stroke="black" points="511.312,-379.301 531.146,-386.758 520.291,-368.559 511.312,-379.301"/>
<polygon fill="black" stroke="black" points="381.588,-297.132 360.408,-296.491 376.566,-310.2 381.588,-297.132"/>
</g>
<!-- por&#45;&gt;glg -->
<g id="edge45" class="edge"><title>por&#45;&gt;glg</title>
<path fill="none" stroke="black" d="M609.792,-373.814C612.448,-371.837 615.139,-369.956 617.841,-368.215 662.909,-339.176 719.527,-316.538 761.836,-301.919"/>
<polygon fill="black" stroke="black" points="605.039,-368.661 594.096,-386.807 613.966,-379.445 605.039,-368.661"/>
<polygon fill="black" stroke="black" points="764.307,-308.474 781.051,-295.488 759.863,-295.197 764.307,-308.474"/>
</g>
<!-- eus -->
<g id="node24" class="node"><title>eus</title>
<ellipse fill="none" stroke="black" cx="500.841" cy="-836.84" rx="45.9239" ry="45.9239"/>
<text text-anchor="middle" x="500.841" y="-828.04" font-family="Times,serif" font-size="36.00">eus</text>
</g>
<!-- eus&#45;&gt;eng -->
<g id="edge25" class="edge"><title>eus&#45;&gt;eng</title>
<path fill="none" stroke="black" d="M539.518,-811.72C575.678,-789.169 630.138,-755.206 671.38,-729.487"/>
<polygon fill="black" stroke="black" points="675.17,-735.373 688.436,-718.85 667.761,-723.494 675.17,-735.373"/>
</g>
<!-- eus&#45;&gt;spa -->
<g id="edge26" class="edge"><title>eus&#45;&gt;spa</title>
<path fill="none" stroke="black" d="M494.735,-791.192C488.507,-745.648 478.78,-674.511 471.704,-622.768"/>
<polygon fill="black" stroke="black" points="478.639,-621.815 468.994,-602.948 464.768,-623.712 478.639,-621.815"/>
</g>
<!-- hbs -->
<g id="node25" class="node"><title>hbs</title>
<ellipse fill="none" stroke="black" cx="858.841" cy="-976.784" rx="47.2526" ry="47.2526"/>
<text text-anchor="middle" x="858.841" y="-967.984" font-family="Times,serif" font-size="36.00">hbs</text>
</g>
<!-- hbs&#45;&gt;eng -->
<g id="edge29" class="edge"><title>hbs&#45;&gt;eng</title>
<path fill="none" stroke="black" d="M811.522,-970.393C765.278,-962.328 697.252,-942.383 664.841,-893.408 637.09,-851.476 649.111,-828.031 664.841,-780.271 669.036,-767.535 675.903,-755.136 683.616,-743.886"/>
<polygon fill="black" stroke="black" points="689.293,-747.985 695.736,-727.799 678.111,-739.561 689.293,-747.985"/>
</g>
<!-- mkd -->
<g id="node26" class="node"><title>mkd</title>
<ellipse fill="none" stroke="black" cx="858.841" cy="-836.84" rx="56.6372" ry="56.6372"/>
<text text-anchor="middle" x="858.841" y="-828.04" font-family="Times,serif" font-size="36.00">mkd</text>
</g>
<!-- hbs&#45;&gt;mkd -->
<g id="edge30" class="edge"><title>hbs&#45;&gt;mkd</title>
<path fill="none" stroke="black" d="M858.841,-929.083C858.841,-924.09 858.841,-918.923 858.841,-913.703"/>
<polygon fill="black" stroke="black" points="865.841,-913.562 858.841,-893.562 851.841,-913.562 865.841,-913.562"/>
</g>
<!-- slv -->
<g id="node27" class="node"><title>slv</title>
<ellipse fill="none" stroke="black" cx="974.841" cy="-836.84" rx="41.9398" ry="41.9398"/>
<text text-anchor="middle" x="974.841" y="-828.04" font-family="Times,serif" font-size="36.00">slv</text>
</g>
<!-- hbs&#45;&gt;slv -->
<g id="edge31" class="edge"><title>hbs&#45;&gt;slv</title>
<path fill="none" stroke="black" d="M901.913,-924.563C912.873,-911.53 924.596,-897.59 935.366,-884.782"/>
<polygon fill="black" stroke="black" points="896.53,-920.089 889.015,-939.901 907.245,-929.099 896.53,-920.089"/>
<polygon fill="black" stroke="black" points="940.855,-889.131 948.37,-869.318 930.14,-880.12 940.855,-889.131"/>
</g>
<!-- mkd&#45;&gt;eng -->
<g id="edge38" class="edge"><title>mkd&#45;&gt;eng</title>
<path fill="none" stroke="black" d="M820.89,-794.331C806.39,-778.472 789.704,-760.222 774.555,-743.653"/>
<polygon fill="black" stroke="black" points="779.565,-738.759 760.904,-728.721 769.233,-748.205 779.565,-738.759"/>
</g>
<!-- bul -->
<g id="node34" class="node"><title>bul</title>
<ellipse fill="none" stroke="black" cx="858.841" cy="-692.652" rx="43.6818" ry="43.6818"/>
<text text-anchor="middle" x="858.841" y="-683.852" font-family="Times,serif" font-size="36.00">bul</text>
</g>
<!-- mkd&#45;&gt;bul -->
<g id="edge37" class="edge"><title>mkd&#45;&gt;bul</title>
<path fill="none" stroke="black" d="M858.841,-759.725C858.841,-758.731 858.841,-757.739 858.841,-756.748"/>
<polygon fill="black" stroke="black" points="851.841,-760.052 858.841,-780.052 865.841,-760.052 851.841,-760.052"/>
<polygon fill="black" stroke="black" points="865.841,-756.529 858.841,-736.529 851.841,-756.529 865.841,-756.529"/>
</g>
<!-- ind -->
<g id="node28" class="node"><title>ind</title>
<ellipse fill="none" stroke="black" cx="1420.84" cy="-976.784" rx="43.6818" ry="43.6818"/>
<text text-anchor="middle" x="1420.84" y="-967.984" font-family="Times,serif" font-size="36.00">ind</text>
</g>
<!-- zsm -->
<g id="node29" class="node"><title>zsm</title>
<ellipse fill="none" stroke="black" cx="1420.84" cy="-836.84" rx="52.1524" ry="52.1524"/>
<text text-anchor="middle" x="1420.84" y="-828.04" font-family="Times,serif" font-size="36.00">zsm</text>
</g>
<!-- ind&#45;&gt;zsm -->
<g id="edge32" class="edge"><title>ind&#45;&gt;zsm</title>
<path fill="none" stroke="black" d="M1420.84,-912.748C1420.84,-911.651 1420.84,-910.551 1420.84,-909.45"/>
<polygon fill="black" stroke="black" points="1413.84,-912.894 1420.84,-932.894 1427.84,-912.894 1413.84,-912.894"/>
<polygon fill="black" stroke="black" points="1427.84,-909.429 1420.84,-889.429 1413.84,-909.429 1427.84,-909.429"/>
</g>
<!-- isl -->
<g id="node30" class="node"><title>isl</title>
<ellipse fill="none" stroke="black" cx="1072.84" cy="-836.84" rx="35.2113" ry="35.2113"/>
<text text-anchor="middle" x="1072.84" y="-828.04" font-family="Times,serif" font-size="36.00">isl</text>
</g>
<!-- isl&#45;&gt;eng -->
<g id="edge33" class="edge"><title>isl&#45;&gt;eng</title>
<path fill="none" stroke="black" d="M1054.45,-806.604C1046.79,-796.736 1037.05,-786.624 1025.84,-780.271 939.637,-731.431 898.147,-780.273 805.841,-744.271 798.423,-741.378 790.98,-737.697 783.801,-733.644"/>
<polygon fill="black" stroke="black" points="787.356,-727.612 766.666,-723.038 779.988,-739.516 787.356,-727.612"/>
</g>
<!-- swe -->
<g id="node31" class="node"><title>swe</title>
<ellipse fill="none" stroke="black" cx="1090.84" cy="-692.652" rx="51.7379" ry="51.7379"/>
<text text-anchor="middle" x="1090.84" y="-683.852" font-family="Times,serif" font-size="36.00">swe</text>
</g>
<!-- isl&#45;&gt;swe -->
<g id="edge34" class="edge"><title>isl&#45;&gt;swe</title>
<path fill="none" stroke="black" d="M1079.71,-781.559C1080.45,-775.758 1081.2,-769.799 1081.95,-763.847"/>
<polygon fill="black" stroke="black" points="1072.77,-780.699 1077.2,-801.42 1086.65,-782.458 1072.77,-780.699"/>
<polygon fill="black" stroke="black" points="1088.91,-764.609 1084.48,-743.889 1075.02,-762.851 1088.91,-764.609"/>
</g>
<!-- swe&#45;&gt;dan -->
<g id="edge48" class="edge"><title>swe&#45;&gt;dan</title>
<path fill="none" stroke="black" d="M1059.01,-628.127C1057.38,-624.875 1055.74,-621.612 1054.12,-618.369"/>
<polygon fill="black" stroke="black" points="1052.75,-631.269 1067.97,-646.014 1065.27,-624.997 1052.75,-631.269"/>
<polygon fill="black" stroke="black" points="1060.25,-614.979 1045.03,-600.234 1047.73,-621.251 1060.25,-614.979"/>
</g>
<!-- swe&#45;&gt;nno -->
<g id="edge50" class="edge"><title>swe&#45;&gt;nno</title>
<path fill="none" stroke="black" d="M1093.21,-620.566C1094.54,-580.479 1096.21,-530.613 1097.53,-490.824"/>
<polygon fill="black" stroke="black" points="1086.2,-620.625 1092.53,-640.847 1100.2,-621.091 1086.2,-620.625"/>
<polygon fill="black" stroke="black" points="1104.53,-490.975 1098.2,-470.753 1090.54,-490.508 1104.53,-490.975"/>
</g>
<!-- swe&#45;&gt;nob -->
<g id="edge49" class="edge"><title>swe&#45;&gt;nob</title>
<path fill="none" stroke="black" d="M1126.84,-630.256C1161.37,-562.673 1202.34,-452.448 1158.84,-368.215 1146.58,-344.48 1124.32,-325.92 1102.27,-312.267"/>
<polygon fill="black" stroke="black" points="1120.55,-627.183 1117.35,-648.13 1132.91,-633.75 1120.55,-627.183"/>
<polygon fill="black" stroke="black" points="1105.68,-306.152 1084.83,-302.365 1098.77,-318.327 1105.68,-306.152"/>
</g>
<!-- kaz -->
<g id="node32" class="node"><title>kaz</title>
<ellipse fill="none" stroke="black" cx="1529.84" cy="-976.784" rx="46.8387" ry="46.8387"/>
<text text-anchor="middle" x="1529.84" y="-967.984" font-family="Times,serif" font-size="36.00">kaz</text>
</g>
<!-- tat -->
<g id="node33" class="node"><title>tat</title>
<ellipse fill="none" stroke="black" cx="1529.84" cy="-836.84" rx="36.5405" ry="36.5405"/>
<text text-anchor="middle" x="1529.84" y="-828.04" font-family="Times,serif" font-size="36.00">tat</text>
</g>
<!-- kaz&#45;&gt;tat -->
<g id="edge36" class="edge"><title>kaz&#45;&gt;tat</title>
<path fill="none" stroke="black" d="M1529.84,-909.587C1529.84,-904.411 1529.84,-899.213 1529.84,-894.112"/>
<polygon fill="black" stroke="black" points="1522.84,-909.851 1529.84,-929.851 1536.84,-909.851 1522.84,-909.851"/>
<polygon fill="black" stroke="black" points="1536.84,-893.982 1529.84,-873.982 1522.84,-893.982 1536.84,-893.982"/>
</g>
<!-- mlt -->
<g id="node35" class="node"><title>mlt</title>
<ellipse fill="none" stroke="black" cx="1639.84" cy="-976.784" rx="45.011" ry="45.011"/>
<text text-anchor="middle" x="1639.84" y="-967.984" font-family="Times,serif" font-size="36.00">mlt</text>
</g>
<!-- ara -->
<g id="node36" class="node"><title>ara</title>
<ellipse fill="none" stroke="black" cx="1639.84" cy="-836.84" rx="42.3529" ry="42.3529"/>
<text text-anchor="middle" x="1639.84" y="-828.04" font-family="Times,serif" font-size="36.00">ara</text>
</g>
<!-- mlt&#45;&gt;ara -->
<g id="edge39" class="edge"><title>mlt&#45;&gt;ara</title>
<path fill="none" stroke="black" d="M1639.84,-931.379C1639.84,-921.204 1639.84,-910.208 1639.84,-899.454"/>
<polygon fill="black" stroke="black" points="1646.84,-899.35 1639.84,-879.35 1632.84,-899.35 1646.84,-899.35"/>
</g>
<!-- oci -->
<g id="node37" class="node"><title>oci</title>
<ellipse fill="none" stroke="black" cx="315.841" cy="-692.652" rx="42.3529" ry="42.3529"/>
<text text-anchor="middle" x="315.841" y="-683.852" font-family="Times,serif" font-size="36.00">oci</text>
</g>
<!-- oci&#45;&gt;cat -->
<g id="edge41" class="edge"><title>oci&#45;&gt;cat</title>
<path fill="none" stroke="black" d="M300.011,-632.02C285.051,-566.696 267.427,-459.109 285.841,-368.215 287.92,-357.953 291.275,-347.391 295.122,-337.348"/>
<polygon fill="black" stroke="black" points="293.252,-633.854 304.725,-651.669 306.866,-630.588 293.252,-633.854"/>
<polygon fill="black" stroke="black" points="301.585,-340.036 302.918,-318.888 288.688,-334.589 301.585,-340.036"/>
</g>
<!-- oci&#45;&gt;spa -->
<g id="edge42" class="edge"><title>oci&#45;&gt;spa</title>
<path fill="none" stroke="black" d="M362.06,-649.614C378.624,-634.549 397.341,-617.525 414.11,-602.272"/>
<polygon fill="black" stroke="black" points="357.101,-644.662 347.016,-663.298 366.521,-655.019 357.101,-644.662"/>
<polygon fill="black" stroke="black" points="419.065,-607.228 429.15,-588.593 409.645,-596.872 419.065,-607.228"/>
</g>
<!-- pol -->
<g id="node38" class="node"><title>pol</title>
<ellipse fill="none" stroke="black" cx="1746.84" cy="-976.784" rx="43.6818" ry="43.6818"/>
<text text-anchor="middle" x="1746.84" y="-967.984" font-family="Times,serif" font-size="36.00">pol</text>
</g>
<!-- szl -->
<g id="node39" class="node"><title>szl</title>
<ellipse fill="none" stroke="black" cx="1746.84" cy="-836.84" rx="39.6962" ry="39.6962"/>
<text text-anchor="middle" x="1746.84" y="-828.04" font-family="Times,serif" font-size="36.00">szl</text>
</g>
<!-- pol&#45;&gt;szl -->
<g id="edge43" class="edge"><title>pol&#45;&gt;szl</title>
<path fill="none" stroke="black" d="M1746.84,-932.894C1746.84,-921.483 1746.84,-908.955 1746.84,-896.845"/>
<polygon fill="black" stroke="black" points="1753.84,-896.489 1746.84,-876.489 1739.84,-896.489 1753.84,-896.489"/>
</g>
<!-- sme -->
<g id="node41" class="node"><title>sme</title>
<ellipse fill="none" stroke="black" cx="978.841" cy="-420.541" rx="52.1524" ry="52.1524"/>
<text text-anchor="middle" x="978.841" y="-411.741" font-family="Times,serif" font-size="36.00">sme</text>
</g>
<!-- sme&#45;&gt;nob -->
<g id="edge47" class="edge"><title>sme&#45;&gt;nob</title>
<path fill="none" stroke="black" d="M999.657,-372.173C1003.26,-363.98 1007.05,-355.343 1010.81,-346.799"/>
<polygon fill="black" stroke="black" points="1017.23,-349.582 1018.87,-328.456 1004.41,-343.949 1017.23,-349.582"/>
</g>
<!-- urd -->
<g id="node42" class="node"><title>urd</title>
<ellipse fill="none" stroke="black" cx="1854.84" cy="-976.784" rx="45.9239" ry="45.9239"/>
<text text-anchor="middle" x="1854.84" y="-967.984" font-family="Times,serif" font-size="36.00">urd</text>
</g>
<!-- hin -->
<g id="node43" class="node"><title>hin</title>
<ellipse fill="none" stroke="black" cx="1854.84" cy="-836.84" rx="43.6818" ry="43.6818"/>
<text text-anchor="middle" x="1854.84" y="-828.04" font-family="Times,serif" font-size="36.00">hin</text>
</g>
<!-- urd&#45;&gt;hin -->
<g id="edge51" class="edge"><title>urd&#45;&gt;hin</title>
<path fill="none" stroke="black" d="M1854.84,-910.388C1854.84,-907.244 1854.84,-904.091 1854.84,-900.954"/>
<polygon fill="black" stroke="black" points="1847.84,-910.616 1854.84,-930.616 1861.84,-910.616 1847.84,-910.616"/>
<polygon fill="black" stroke="black" points="1861.84,-900.765 1854.84,-880.766 1847.84,-900.766 1861.84,-900.765"/>
</g>
</g>
</svg>
