<?xml version="1.0" encoding="UTF-8" standalone="no"?>
<svg
   xmlns:dc="http://purl.org/dc/elements/1.1/"
   xmlns:cc="http://creativecommons.org/ns#"
   xmlns:rdf="http://www.w3.org/1999/02/22-rdf-syntax-ns#"
   xmlns:svg="http://www.w3.org/2000/svg"
   xmlns="http://www.w3.org/2000/svg"
   viewBox="0 0 282.66666 94.666664"
   height="94.666664"
   width="282.66666"
   xml:space="preserve"
   id="svg2"
   version="1.1"><metadata
     id="metadata8"><rdf:RDF><cc:Work
         rdf:about=""><dc:format>image/svg+xml</dc:format><dc:type
           rdf:resource="http://purl.org/dc/dcmitype/StillImage" /></cc:Work></rdf:RDF></metadata><defs
     id="defs6" /><g
     transform="matrix(1.3333333,0,0,-1.3333333,0,94.666667)"
     id="g10"><g
       transform="scale(0.1)"
       id="g12"><path
         id="path14"
         style="fill:#ffffff;fill-opacity:1;fill-rule:nonzero;stroke:none"
         d="m 256.895,355.199 c 0,32.746 -26.547,59.297 -59.293,59.297 -32.747,0 -59.297,-26.551 -59.297,-59.297 0,-32.746 26.55,-59.297 59.297,-59.297 32.746,0 59.293,26.551 59.293,59.297" /><path
         id="path16"
         style="fill:none;stroke:#000000;stroke-width:8.96636963;stroke-linecap:butt;stroke-linejoin:miter;stroke-miterlimit:10;stroke-dasharray:none;stroke-opacity:1"
         d="m 256.895,355.199 c 0,32.746 -26.547,59.297 -59.293,59.297 -32.747,0 -59.297,-26.551 -59.297,-59.297 0,-32.746 26.55,-59.297 59.297,-59.297 32.746,0 59.293,26.551 59.293,59.297 z" /><path
         id="path18"
         style="fill:#ffffff;fill-opacity:1;fill-rule:nonzero;stroke:none"
         d="m 682.297,638.398 c 0,32.747 -26.551,59.297 -59.297,59.297 -32.746,0 -59.297,-26.55 -59.297,-59.297 0,-32.746 26.551,-59.293 59.297,-59.293 32.746,0 59.297,26.547 59.297,59.293" /><path
         id="path20"
         style="fill:none;stroke:#000000;stroke-width:8.96636963;stroke-linecap:butt;stroke-linejoin:miter;stroke-miterlimit:10;stroke-dasharray:none;stroke-opacity:1"
         d="m 682.297,638.398 c 0,32.747 -26.551,59.297 -59.297,59.297 -32.746,0 -59.297,-26.55 -59.297,-59.297 0,-32.746 26.551,-59.293 59.297,-59.293 32.746,0 59.297,26.547 59.297,59.293 z" /><path
         id="path22"
         style="fill:#ffffff;fill-opacity:1;fill-rule:nonzero;stroke:none"
         d="m 682.297,71.3984 c 0,32.7466 -26.551,59.2966 -59.297,59.2966 -32.746,0 -59.297,-26.55 -59.297,-59.2966 0,-32.7461 26.551,-59.2929 59.297,-59.2929 32.746,0 59.297,26.5468 59.297,59.2929" /><path
         id="path24"
         style="fill:none;stroke:#000000;stroke-width:8.96636963;stroke-linecap:butt;stroke-linejoin:miter;stroke-miterlimit:10;stroke-dasharray:none;stroke-opacity:1"
         d="m 682.297,71.3984 c 0,32.7466 -26.551,59.2966 -59.297,59.2966 -32.746,0 -59.297,-26.55 -59.297,-59.2966 0,-32.7461 26.551,-59.2929 59.297,-59.2929 32.746,0 59.297,26.5468 59.297,59.2929 z" /><path
         id="path26"
         style="fill:#ffffff;fill-opacity:1;fill-rule:nonzero;stroke:none"
         d="m 1107.1,638.398 c 0,32.747 -26.55,59.297 -59.3,59.297 -32.75,0 -59.296,-26.55 -59.296,-59.297 0,-32.746 26.546,-59.293 59.296,-59.293 32.75,0 59.3,26.547 59.3,59.293" /><path
         id="path28"
         style="fill:none;stroke:#000000;stroke-width:8.96636963;stroke-linecap:butt;stroke-linejoin:miter;stroke-miterlimit:10;stroke-dasharray:none;stroke-opacity:1"
         d="m 1107.1,638.398 c 0,32.747 -26.55,59.297 -59.3,59.297 -32.75,0 -59.296,-26.55 -59.296,-59.297 0,-32.746 26.546,-59.293 59.296,-59.293 32.75,0 59.3,26.547 59.3,59.293 z" /><path
         id="path30"
         style="fill:#ffffff;fill-opacity:1;fill-rule:nonzero;stroke:none"
         d="m 1107.1,355.199 c 0,32.746 -26.55,59.297 -59.3,59.297 -32.75,0 -59.296,-26.551 -59.296,-59.297 0,-32.746 26.546,-59.297 59.296,-59.297 32.75,0 59.3,26.551 59.3,59.297" /><path
         id="path32"
         style="fill:none;stroke:#000000;stroke-width:8.96636963;stroke-linecap:butt;stroke-linejoin:miter;stroke-miterlimit:10;stroke-dasharray:none;stroke-opacity:1"
         d="m 1107.1,355.199 c 0,32.746 -26.55,59.297 -59.3,59.297 -32.75,0 -59.296,-26.551 -59.296,-59.297 0,-32.746 26.546,-59.297 59.296,-59.297 32.75,0 59.3,26.551 59.3,59.297 z" /><path
         id="path34"
         style="fill:#ffffff;fill-opacity:1;fill-rule:nonzero;stroke:none"
         d="m 1107.1,71.3984 c 0,32.7466 -26.55,59.2966 -59.3,59.2966 -32.75,0 -59.296,-26.55 -59.296,-59.2966 0,-32.7461 26.546,-59.2929 59.296,-59.2929 32.75,0 59.3,26.5468 59.3,59.2929" /><path
         id="path36"
         style="fill:none;stroke:#000000;stroke-width:8.96636963;stroke-linecap:butt;stroke-linejoin:miter;stroke-miterlimit:10;stroke-dasharray:none;stroke-opacity:1"
         d="m 1107.1,71.3984 c 0,32.7466 -26.55,59.2966 -59.3,59.2966 -32.75,0 -59.296,-26.55 -59.296,-59.2966 0,-32.7461 26.546,-59.2929 59.296,-59.2929 32.75,0 59.3,26.5468 59.3,59.2929 z" /><path
         id="path38"
         style="fill:#ffffff;fill-opacity:1;fill-rule:nonzero;stroke:none"
         d="m 1532.5,638.398 c 0,32.747 -26.55,59.297 -59.3,59.297 -32.75,0 -59.3,-26.55 -59.3,-59.297 0,-32.746 26.55,-59.293 59.3,-59.293 32.75,0 59.3,26.547 59.3,59.293" /><path
         id="path40"
         style="fill:none;stroke:#000000;stroke-width:8.96636963;stroke-linecap:butt;stroke-linejoin:miter;stroke-miterlimit:10;stroke-dasharray:none;stroke-opacity:1"
         d="m 1532.5,638.398 c 0,32.747 -26.55,59.297 -59.3,59.297 -32.75,0 -59.3,-26.55 -59.3,-59.297 0,-32.746 26.55,-59.293 59.3,-59.293 32.75,0 59.3,26.547 59.3,59.293 z" /><path
         id="path42"
         style="fill:#ffffff;fill-opacity:1;fill-rule:nonzero;stroke:none"
         d="m 1746.52,496.801 v 0 c 0,44.488 36.07,80.554 80.55,80.554 h 143.07 c 44.49,0 80.56,-36.066 80.56,-80.554 v -0.004 c 0,-44.488 -36.07,-80.555 -80.56,-80.555 h -143.07 c -44.49,0 -80.55,36.071 -80.55,80.559" /><path
         id="path44"
         style="fill:none;stroke:#000000;stroke-width:8.96636963;stroke-linecap:butt;stroke-linejoin:miter;stroke-miterlimit:10;stroke-dasharray:none;stroke-opacity:1"
         d="m 1746.52,496.801 v 0 c 0,44.488 36.07,80.554 80.55,80.554 h 143.07 c 44.49,0 80.56,-36.066 80.56,-80.554 v -0.004 c 0,-44.488 -36.07,-80.555 -80.56,-80.555 h -143.07 c -44.49,0 -80.55,36.071 -80.55,80.559 z" /><g
         transform="scale(10)"
         id="g46"><text
           id="text50"
           style="font-variant:normal;font-weight:normal;font-size:8.46823978px;font-family:CMR10;-inkscape-font-specification:CMR10;writing-mode:lr-tb;fill:#000000;fill-opacity:1;fill-rule:nonzero;stroke:none"
           transform="matrix(1,0,0,-1,175.07,47.5379)"><tspan
             id="tspan48"
             y="0"
             x="0 2.853188 6.6234503">-es</tspan></text>
<text
           id="text54"
           style="font-variant:normal;font-weight:normal;font-size:8.46823978px;font-family:CMBX10;-inkscape-font-specification:CMBX10;writing-mode:lr-tb;fill:#000000;fill-opacity:1;fill-rule:nonzero;stroke:none"
           transform="matrix(1,0,0,-1,187.82,47.5379)"><tspan
             id="tspan52"
             y="0"
             x="0 8.6708679">nm</tspan></text>
</g><path
         id="path56"
         style="fill:#ffffff;fill-opacity:1;fill-rule:nonzero;stroke:none"
         d="m 1687.71,213 v 0 c 0,44.488 36.08,80.555 80.56,80.555 h 260.68 c 44.49,0 80.56,-36.067 80.56,-80.555 v 0 c 0,-44.488 -36.07,-80.555 -80.56,-80.555 h -260.68 c -44.48,0 -80.56,36.067 -80.56,80.555" /><path
         id="path58"
         style="fill:none;stroke:#000000;stroke-width:8.96636963;stroke-linecap:butt;stroke-linejoin:miter;stroke-miterlimit:10;stroke-dasharray:none;stroke-opacity:1"
         d="m 1687.71,213 v 0 c 0,44.488 36.08,80.555 80.56,80.555 h 260.68 c 44.49,0 80.56,-36.067 80.56,-80.555 v 0 c 0,-44.488 -36.07,-80.555 -80.56,-80.555 h -260.68 c -44.48,0 -80.56,36.067 -80.56,80.555 z" /><g
         transform="scale(10)"
         id="g60"><text
           id="text64"
           style="font-variant:normal;font-weight:normal;font-size:8.46823978px;font-family:CMR10;-inkscape-font-specification:CMR10;writing-mode:lr-tb;fill:#000000;fill-opacity:1;fill-rule:nonzero;stroke:none"
           transform="matrix(1,0,0,-1,169.154,19.2602)"><tspan
             id="tspan62"
             y="0"
             x="0 3.7702622 8.0542603 10.907449 14.677711 18.447973">z/-ces</tspan></text>
<text
           id="text68"
           style="font-variant:normal;font-weight:normal;font-size:8.46823978px;font-family:CMBX10;-inkscape-font-specification:CMBX10;writing-mode:lr-tb;fill:#000000;fill-opacity:1;fill-rule:nonzero;stroke:none"
           transform="matrix(1,0,0,-1,193.736,19.2602)"><tspan
             id="tspan66"
             y="0"
             x="0 8.5689192">nm</tspan></text>
</g><path
         id="path70"
         style="fill:#000000;fill-opacity:1;fill-rule:nonzero;stroke:none"
         d="m 98.9531,342.746 34.8669,12.453 -34.8669,12.453 3.4849,-12.453" /><path
         id="path72"
         style="fill:none;stroke:#000000;stroke-width:4.9813199;stroke-linecap:butt;stroke-linejoin:miter;stroke-miterlimit:10;stroke-dasharray:none;stroke-opacity:1"
         d="M 6.26172,355.199 H 102.438" /><path
         id="path74"
         style="fill:#000000;fill-opacity:1;fill-rule:nonzero;stroke:none"
         d="m 547.785,573.367 22.125,29.688 -35.926,-8.957 9.801,-8.434" /><path
         id="path76"
         style="fill:none;stroke:#000000;stroke-width:4.9813199;stroke-linecap:butt;stroke-linejoin:miter;stroke-miterlimit:10;stroke-dasharray:none;stroke-opacity:1"
         d="M 250.691,390.543 543.785,585.664" /><g
         transform="scale(10)"
         id="g78"><text
           id="text82"
           style="font-variant:normal;font-weight:normal;font-size:8.46823978px;font-family:CMMI10;-inkscape-font-specification:CMMI10;writing-mode:lr-tb;fill:#000000;fill-opacity:1;fill-rule:nonzero;stroke:none"
           transform="matrix(1,0,0,-1,24.407,53.3105)"><tspan
             id="tspan80"
             y="0"
             x="0">p</tspan></text>
<text
           id="text86"
           style="font-variant:normal;font-weight:normal;font-size:8.46823978px;font-family:CMR10;-inkscape-font-specification:CMR10;writing-mode:lr-tb;fill:#000000;fill-opacity:1;fill-rule:nonzero;stroke:none"
           transform="matrix(1,0,0,-1,31.03708,53.3105)"><tspan
             id="tspan84"
             y="0"
             x="0">:</tspan></text>
<text
           id="text90"
           style="font-variant:normal;font-weight:normal;font-size:8.46823978px;font-family:CMMI10;-inkscape-font-specification:CMMI10;writing-mode:lr-tb;fill:#000000;fill-opacity:1;fill-rule:nonzero;stroke:none"
           transform="matrix(1,0,0,-1,35.72927,53.3105)"><tspan
             id="tspan88"
             y="0"
             x="0">p</tspan></text>
</g><path
         id="path92"
         style="fill:#000000;fill-opacity:1;fill-rule:nonzero;stroke:none"
         d="m 534.027,115.789 35.918,-8.992 -22.097,29.711 -4.008,-12.297" /><path
         id="path94"
         style="fill:none;stroke:#000000;stroke-width:4.9813199;stroke-linecap:butt;stroke-linejoin:miter;stroke-miterlimit:10;stroke-dasharray:none;stroke-opacity:1"
         d="M 250.656,319.805 543.84,124.211" /><g
         transform="scale(10)"
         id="g96"><text
           id="text100"
           style="font-variant:normal;font-weight:normal;font-size:8.46823978px;font-family:CMMI10;-inkscape-font-specification:CMMI10;writing-mode:lr-tb;fill:#000000;fill-opacity:1;fill-rule:nonzero;stroke:none"
           transform="matrix(1,0,0,-1,24.1008,15.6277)"><tspan
             id="tspan98"
             y="0"
             x="0">v</tspan></text>
<text
           id="text104"
           style="font-variant:normal;font-weight:normal;font-size:8.46823978px;font-family:CMR10;-inkscape-font-specification:CMR10;writing-mode:lr-tb;fill:#000000;fill-opacity:1;fill-rule:nonzero;stroke:none"
           transform="matrix(1,0,0,-1,30.93478,15.6277)"><tspan
             id="tspan102"
             y="0"
             x="0">:</tspan></text>
<text
           id="text108"
           style="font-variant:normal;font-weight:normal;font-size:8.46823978px;font-family:CMMI10;-inkscape-font-specification:CMMI10;writing-mode:lr-tb;fill:#000000;fill-opacity:1;fill-rule:nonzero;stroke:none"
           transform="matrix(1,0,0,-1,35.62697,15.6277)"><tspan
             id="tspan106"
             y="0"
             x="0">v</tspan></text>
</g><path
         id="path110"
         style="fill:#000000;fill-opacity:1;fill-rule:nonzero;stroke:none"
         d="m 949.152,625.945 34.868,12.453 -34.868,12.454 3.485,-12.454" /><path
         id="path112"
         style="fill:none;stroke:#000000;stroke-width:4.9813199;stroke-linecap:butt;stroke-linejoin:miter;stroke-miterlimit:10;stroke-dasharray:none;stroke-opacity:1"
         d="m 686.777,638.398 h 265.86" /><g
         transform="scale(10)"
         id="g114"><text
           id="text118"
           style="font-variant:normal;font-weight:normal;font-size:8.46823978px;font-family:CMMI10;-inkscape-font-specification:CMMI10;writing-mode:lr-tb;fill:#000000;fill-opacity:1;fill-rule:nonzero;stroke:none"
           transform="matrix(1,0,0,-1,74.0137,66.0445)"><tspan
             id="tspan116"
             y="0"
             x="0">a</tspan></text>
<text
           id="text122"
           style="font-variant:normal;font-weight:normal;font-size:8.46823978px;font-family:CMR10;-inkscape-font-specification:CMR10;writing-mode:lr-tb;fill:#000000;fill-opacity:1;fill-rule:nonzero;stroke:none"
           transform="matrix(1,0,0,-1,80.84768,66.0445)"><tspan
             id="tspan120"
             y="0"
             x="0">:</tspan></text>
<text
           id="text126"
           style="font-variant:normal;font-weight:normal;font-size:8.46823978px;font-family:CMMI10;-inkscape-font-specification:CMMI10;writing-mode:lr-tb;fill:#000000;fill-opacity:1;fill-rule:nonzero;stroke:none"
           transform="matrix(1,0,0,-1,85.53987,66.0445)"><tspan
             id="tspan124"
             y="0"
             x="0">a</tspan></text>
</g><path
         id="path128"
         style="fill:#000000;fill-opacity:1;fill-rule:nonzero;stroke:none"
         d="m 958.813,399.559 35.921,-8.981 -22.105,29.703 -4.008,-12.297" /><path
         id="path130"
         style="fill:none;stroke:#000000;stroke-width:4.9813199;stroke-linecap:butt;stroke-linejoin:miter;stroke-miterlimit:10;stroke-dasharray:none;stroke-opacity:1"
         d="M 676.066,603.023 968.621,407.984" /><g
         transform="scale(10)"
         id="g132"><text
           id="text136"
           style="font-variant:normal;font-weight:normal;font-size:8.46823978px;font-family:CMMI10;-inkscape-font-specification:CMMI10;writing-mode:lr-tb;fill:#000000;fill-opacity:1;fill-rule:nonzero;stroke:none"
           transform="matrix(1,0,0,-1,72.2359,40.8578)"><tspan
             id="tspan134"
             y="0"
             x="0">e</tspan></text>
<text
           id="text140"
           style="font-variant:normal;font-weight:normal;font-size:8.46823978px;font-family:CMR10;-inkscape-font-specification:CMR10;writing-mode:lr-tb;fill:#000000;fill-opacity:1;fill-rule:nonzero;stroke:none"
           transform="matrix(1,0,0,-1,78.55973,40.8578)"><tspan
             id="tspan138"
             y="0"
             x="0">:</tspan></text>
<text
           id="text144"
           style="font-variant:normal;font-weight:normal;font-size:8.46823978px;font-family:CMMI10;-inkscape-font-specification:CMMI10;writing-mode:lr-tb;fill:#000000;fill-opacity:1;fill-rule:nonzero;stroke:none"
           transform="matrix(1,0,0,-1,83.25192,40.8578)"><tspan
             id="tspan142"
             y="0"
             x="0">e</tspan></text>
</g><path
         id="path146"
         style="fill:#000000;fill-opacity:1;fill-rule:nonzero;stroke:none"
         d="m 949.152,58.9453 34.868,12.4531 -34.868,12.4532 3.485,-12.4532" /><path
         id="path148"
         style="fill:none;stroke:#000000;stroke-width:4.9813199;stroke-linecap:butt;stroke-linejoin:miter;stroke-miterlimit:10;stroke-dasharray:none;stroke-opacity:1"
         d="m 686.777,71.3984 h 265.86" /><g
         transform="scale(10)"
         id="g150"><text
           id="text154"
           style="font-variant:normal;font-weight:normal;font-size:8.46823978px;font-family:CMMI10;-inkscape-font-specification:CMMI10;writing-mode:lr-tb;fill:#000000;fill-opacity:1;fill-rule:nonzero;stroke:none"
           transform="matrix(1,0,0,-1,74.5539,9.34453)"><tspan
             id="tspan152"
             y="0"
             x="0">e</tspan></text>
<text
           id="text158"
           style="font-variant:normal;font-weight:normal;font-size:8.46823978px;font-family:CMR10;-inkscape-font-specification:CMR10;writing-mode:lr-tb;fill:#000000;fill-opacity:1;fill-rule:nonzero;stroke:none"
           transform="matrix(1,0,0,-1,80.87773,9.34453)"><tspan
             id="tspan156"
             y="0"
             x="0">:</tspan></text>
<text
           id="text162"
           style="font-variant:normal;font-weight:normal;font-size:8.46823978px;font-family:CMMI10;-inkscape-font-specification:CMMI10;writing-mode:lr-tb;fill:#000000;fill-opacity:1;fill-rule:nonzero;stroke:none"
           transform="matrix(1,0,0,-1,85.56992,9.34453)"><tspan
             id="tspan160"
             y="0"
             x="0">e</tspan></text>
</g><path
         id="path164"
         style="fill:#000000;fill-opacity:1;fill-rule:nonzero;stroke:none"
         d="m 1374.55,625.945 34.87,12.453 -34.87,12.454 3.49,-12.454" /><path
         id="path166"
         style="fill:none;stroke:#000000;stroke-width:4.9813199;stroke-linecap:butt;stroke-linejoin:miter;stroke-miterlimit:10;stroke-dasharray:none;stroke-opacity:1"
         d="m 1111.58,638.398 h 266.46" /><g
         transform="scale(10)"
         id="g168"><text
           id="text172"
           style="font-variant:normal;font-weight:normal;font-size:8.46823978px;font-family:CMMI10;-inkscape-font-specification:CMMI10;writing-mode:lr-tb;fill:#000000;fill-opacity:1;fill-rule:nonzero;stroke:none"
           transform="matrix(1,0,0,-1,115.921,66.0445)"><tspan
             id="tspan170"
             y="0"
             x="0">n</tspan></text>
<text
           id="text176"
           style="font-variant:normal;font-weight:normal;font-size:8.46823978px;font-family:CMR10;-inkscape-font-specification:CMR10;writing-mode:lr-tb;fill:#000000;fill-opacity:1;fill-rule:nonzero;stroke:none"
           transform="matrix(1,0,0,-1,123.36709,66.0445)"><tspan
             id="tspan174"
             y="0"
             x="0">:</tspan></text>
<text
           id="text180"
           style="font-variant:normal;font-weight:normal;font-size:8.46823978px;font-family:CMMI10;-inkscape-font-specification:CMMI10;writing-mode:lr-tb;fill:#000000;fill-opacity:1;fill-rule:nonzero;stroke:none"
           transform="matrix(1,0,0,-1,128.05928,66.0445)"><tspan
             id="tspan178"
             y="0"
             x="0">n</tspan></text>
</g><path
         id="path182"
         style="fill:#000000;fill-opacity:1;fill-rule:nonzero;stroke:none"
         d="m 1650.85,159.145 32.35,18.007 -36.44,6.559 5.48,-11.711" /><path
         id="path184"
         style="fill:none;stroke:#000000;stroke-width:4.9813199;stroke-linecap:butt;stroke-linejoin:miter;stroke-miterlimit:10;stroke-dasharray:none;stroke-opacity:1"
         d="M 1110.71,81.8711 1652.24,172" /><g
         transform="scale(10)"
         id="g186"><text
           id="text190"
           style="font-variant:normal;font-weight:normal;font-size:8.46823978px;font-family:CMMI10;-inkscape-font-specification:CMMI10;writing-mode:lr-tb;fill:#000000;fill-opacity:1;fill-rule:nonzero;stroke:none"
           transform="matrix(1,0,0,-1,130.923,3.33867)"><tspan
             id="tspan188"
             y="0"
             x="0">θ</tspan></text>
<text
           id="text194"
           style="font-variant:normal;font-weight:normal;font-size:8.46823978px;font-family:CMR10;-inkscape-font-specification:CMR10;writing-mode:lr-tb;fill:#000000;fill-opacity:1;fill-rule:nonzero;stroke:none"
           transform="matrix(1,0,0,-1,137.45113,3.33867)"><tspan
             id="tspan192"
             y="0"
             x="0">:</tspan></text>
<text
           id="text198"
           style="font-variant:normal;font-weight:normal;font-size:8.46823978px;font-family:CMMI10;-inkscape-font-specification:CMMI10;writing-mode:lr-tb;fill:#000000;fill-opacity:1;fill-rule:nonzero;stroke:none"
           transform="matrix(1,0,0,-1,142.14332,3.33867)"><tspan
             id="tspan196"
             y="0"
             x="0">θ</tspan></text>
</g><path
         id="path200"
         style="fill:#000000;fill-opacity:1;fill-rule:nonzero;stroke:none"
         d="m 1646.75,242.465 36.45,6.535 -32.34,18.031 1.39,-12.859" /><path
         id="path202"
         style="fill:none;stroke:#000000;stroke-width:4.9813199;stroke-linecap:butt;stroke-linejoin:miter;stroke-miterlimit:10;stroke-dasharray:none;stroke-opacity:1"
         d="m 1110.71,344.688 541.54,-90.516" /><g
         transform="scale(10)"
         id="g204"><text
           id="text208"
           style="font-variant:normal;font-weight:normal;font-size:8.46823978px;font-family:CMMI10;-inkscape-font-specification:CMMI10;writing-mode:lr-tb;fill:#000000;fill-opacity:1;fill-rule:nonzero;stroke:none"
           transform="matrix(1,0,0,-1,130.931,33.4219)"><tspan
             id="tspan206"
             y="0"
             x="0">θ</tspan></text>
<text
           id="text212"
           style="font-variant:normal;font-weight:normal;font-size:8.46823978px;font-family:CMR10;-inkscape-font-specification:CMR10;writing-mode:lr-tb;fill:#000000;fill-opacity:1;fill-rule:nonzero;stroke:none"
           transform="matrix(1,0,0,-1,137.45913,33.4219)"><tspan
             id="tspan210"
             y="0"
             x="0">:</tspan></text>
<text
           id="text216"
           style="font-variant:normal;font-weight:normal;font-size:8.46823978px;font-family:CMMI10;-inkscape-font-specification:CMMI10;writing-mode:lr-tb;fill:#000000;fill-opacity:1;fill-rule:nonzero;stroke:none"
           transform="matrix(1,0,0,-1,142.15132,33.4219)"><tspan
             id="tspan214"
             y="0"
             x="0">θ</tspan></text>
</g><path
         id="path218"
         style="fill:#000000;fill-opacity:1;fill-rule:nonzero;stroke:none"
         d="m 1704.98,548.117 37.02,0.805 -29.15,22.828 -0.63,-12.918" /><path
         id="path220"
         style="fill:none;stroke:#000000;stroke-width:4.9813199;stroke-linecap:butt;stroke-linejoin:miter;stroke-miterlimit:10;stroke-dasharray:none;stroke-opacity:1"
         d="m 1533.71,618.254 178.51,-59.422" /><g
         transform="scale(10)"
         id="g222"><text
           id="text226"
           style="font-variant:normal;font-weight:normal;font-size:8.46823978px;font-family:CMMI10;-inkscape-font-specification:CMMI10;writing-mode:lr-tb;fill:#000000;fill-opacity:1;fill-rule:nonzero;stroke:none"
           transform="matrix(1,0,0,-1,158.804,62.3797)"><tspan
             id="tspan224"
             y="0"
             x="0">θ</tspan></text>
<text
           id="text230"
           style="font-variant:normal;font-weight:normal;font-size:8.46823978px;font-family:CMR10;-inkscape-font-specification:CMR10;writing-mode:lr-tb;fill:#000000;fill-opacity:1;fill-rule:nonzero;stroke:none"
           transform="matrix(1,0,0,-1,165.33213,62.3797)"><tspan
             id="tspan228"
             y="0"
             x="0">:</tspan></text>
<text
           id="text234"
           style="font-variant:normal;font-weight:normal;font-size:8.46823978px;font-family:CMMI10;-inkscape-font-specification:CMMI10;writing-mode:lr-tb;fill:#000000;fill-opacity:1;fill-rule:nonzero;stroke:none"
           transform="matrix(1,0,0,-1,170.02432,62.3797)"><tspan
             id="tspan232"
             y="0"
             x="0">θ</tspan></text>
</g></g></g></svg>