<?xml version="1.0" encoding="UTF-8" standalone="no"?>
<svg
   xmlns:dc="http://purl.org/dc/elements/1.1/"
   xmlns:cc="http://creativecommons.org/ns#"
   xmlns:rdf="http://www.w3.org/1999/02/22-rdf-syntax-ns#"
   xmlns:svg="http://www.w3.org/2000/svg"
   xmlns="http://www.w3.org/2000/svg"
   viewBox="0 0 709.33331 273.33334"
   height="273.33334"
   width="709.33331"
   xml:space="preserve"
   id="svg2"
   version="1.1"><metadata
     id="metadata8"><rdf:RDF><cc:Work
         rdf:about=""><dc:format>image/svg+xml</dc:format><dc:type
           rdf:resource="http://purl.org/dc/dcmitype/StillImage" /></cc:Work></rdf:RDF></metadata><defs
     id="defs6" /><g
     transform="matrix(1.3333333,0,0,-1.3333333,0,273.33333)"
     id="g10"><g
       transform="scale(0.1)"
       id="g12"><path
         id="path14"
         style="fill:none;stroke:#000000;stroke-width:5.625;stroke-linecap:butt;stroke-linejoin:miter;stroke-miterlimit:10;stroke-dasharray:none;stroke-opacity:1"
         d="m 4745,605.398 h 562.5 v 360 H 4745 Z" /><g
         transform="scale(10)"
         id="g16"><text
           id="text22"
           style="font-variant:normal;font-weight:normal;font-size:7.875px;font-family:'Courier 10 Pitch';-inkscape-font-specification:Courier;writing-mode:lr-tb;fill:#000000;fill-opacity:1;fill-rule:nonzero;stroke:none"
           transform="matrix(1,0,0,-1,479,80.7898)"><tspan
             id="tspan18"
             y="0"
             x="0 4.7249999 9.4499998">Re-</tspan><tspan
             id="tspan20"
             y="7.875"
             x="0 4.7249999 9.4499998 14.175 18.9 23.625 28.35 33.075001 37.799999 42.525002 47.25">formateador</tspan></text>
</g><path
         id="path24"
         style="fill:none;stroke:#000000;stroke-width:5.625;stroke-linecap:butt;stroke-linejoin:miter;stroke-miterlimit:10;stroke-dasharray:none;stroke-opacity:1"
         d="M 807.5,605.398 H 1370 v 360 H 807.5 Z" /><g
         transform="scale(10)"
         id="g26"><text
           id="text32"
           style="font-variant:normal;font-weight:normal;font-size:7.875px;font-family:'Courier 10 Pitch';-inkscape-font-specification:Courier;writing-mode:lr-tb;fill:#000000;fill-opacity:1;fill-rule:nonzero;stroke:none"
           transform="matrix(1,0,0,-1,85.25,80.7898)"><tspan
             id="tspan28"
             y="0"
             x="0 4.7249999 9.4499998 14.175 18.9 23.625 28.35 33.075001 37.799999 42.525002">Morphological</tspan><tspan
             id="tspan30"
             y="7.875"
             x="0 4.7249999 9.4499998 14.175 18.9 23.625 28.35 33.075001 37.799999 42.525002 47.25">analyser</tspan></text>
</g><path
         id="path34"
         style="fill:none;stroke:#000000;stroke-width:5.625;stroke-linecap:butt;stroke-linejoin:miter;stroke-miterlimit:10;stroke-dasharray:none;stroke-opacity:1"
         d="m 1595,605.398 h 562.5 v 360 H 1595 Z" /><g
         transform="scale(10)"
         id="g36"><text
           id="text40"
           style="font-variant:normal;font-weight:normal;font-size:7.875px;font-family:'Courier 10 Pitch';-inkscape-font-specification:Courier;writing-mode:lr-tb;fill:#000000;fill-opacity:1;fill-rule:nonzero;stroke:none"
           transform="matrix(1,0,0,-1,164,76.2898)"><tspan
             id="tspan38"
             y="0"
             x="0 4.7249999 9.4499998 14.175 18.9 23.625 28.35 33.075001 37.799999 42.525002 47.25">Etiquetador</tspan></text>
</g><path
         id="path42"
         style="fill:none;stroke:#000000;stroke-width:5.625;stroke-linecap:butt;stroke-linejoin:miter;stroke-miterlimit:10;stroke-dasharray:none;stroke-opacity:1"
         d="M 2382.5,605.398 H 2945 v 360 h -562.5 z" /><g
         transform="scale(10)"
         id="g44"><text
           id="text50"
           style="font-variant:normal;font-weight:normal;font-size:7.875px;font-family:'Courier 10 Pitch';-inkscape-font-specification:Courier;writing-mode:lr-tb;fill:#000000;fill-opacity:1;fill-rule:nonzero;stroke:none"
           transform="matrix(1,0,0,-1,242.75,80.7898)"><tspan
             id="tspan46"
             y="0"
             x="0 4.7249999 9.4499998 14.175 18.9 23.625 28.35 33.075001 37.799999">Transfer.</tspan><tspan
             id="tspan48"
             y="7.875"
             x="0 4.7249999 9.4499998 14.175 18.9 23.625 28.35 33.075001 37.799999 42.525002 47.25">estructural</tspan></text>
</g><path
         id="path52"
         style="fill:none;stroke:#000000;stroke-width:5.625;stroke-linecap:butt;stroke-linejoin:miter;stroke-miterlimit:10;stroke-dasharray:none;stroke-opacity:1"
         d="m 3170,605.398 h 562.5 v 360 H 3170 Z" /><g
         transform="scale(10)"
         id="g54"><text
           id="text58"
           style="font-variant:normal;font-weight:normal;font-size:7.875px;font-family:'Courier 10 Pitch';-inkscape-font-specification:Courier;writing-mode:lr-tb;fill:#000000;fill-opacity:1;fill-rule:nonzero;stroke:none"
           transform="matrix(1,0,0,-1,326,76.2898)"><tspan
             id="tspan56"
             y="0"
             x="0 4.7249999 9.4499998 14.175 18.9 23.625 28.35 33.075001 37.799999">Generador</tspan></text>
</g><path
         id="path60"
         style="fill:none;stroke:#000000;stroke-width:5.625;stroke-linecap:butt;stroke-linejoin:miter;stroke-miterlimit:10;stroke-dasharray:none;stroke-opacity:1"
         d="M 3957.5,605.398 H 4520 v 360 h -562.5 z" /><g
         transform="scale(10)"
         id="g62"><text
           id="text68"
           style="font-variant:normal;font-weight:normal;font-size:7.875px;font-family:'Courier 10 Pitch';-inkscape-font-specification:Courier;writing-mode:lr-tb;fill:#000000;fill-opacity:1;fill-rule:nonzero;stroke:none"
           transform="matrix(1,0,0,-1,404.75,80.7898)"><tspan
             id="tspan64"
             y="0"
             x="0 4.7249999 9.4499998 14.175 18.9">Post-</tspan><tspan
             id="tspan66"
             y="7.875"
             x="0 4.7249999 9.4499998 14.175 18.9 23.625 28.35 33.075001 37.799999">generador</tspan></text>
</g><path
         id="path70"
         style="fill:none;stroke:#000000;stroke-width:5.625;stroke-linecap:butt;stroke-linejoin:miter;stroke-miterlimit:10;stroke-dasharray:none;stroke-opacity:1"
         d="M 2382.5,20.3984 H 2945 v 360 h -562.5 z" /><g
         transform="scale(10)"
         id="g72"><text
           id="text78"
           style="font-variant:normal;font-weight:normal;font-size:7.875px;font-family:'Courier 10 Pitch';-inkscape-font-specification:Courier;writing-mode:lr-tb;fill:#000000;fill-opacity:1;fill-rule:nonzero;stroke:none"
           transform="matrix(1,0,0,-1,247.25,22.2898)"><tspan
             id="tspan74"
             y="0"
             x="0 4.7249999 9.4499998 14.175 18.9 23.625 28.35 33.075001 37.799999">Transfer.</tspan><tspan
             id="tspan76"
             y="7.875"
             x="0 4.7249999 9.4499998 14.175 18.9 23.625">léxica</tspan></text>
</g><path
         id="path80"
         style="fill:none;stroke:#000000;stroke-width:5.625;stroke-linecap:butt;stroke-linejoin:miter;stroke-miterlimit:10;stroke-dasharray:none;stroke-opacity:1"
         d="m 65,1190.4 h 450 v 630 H 65 Z" /><path
         id="path82"
         style="fill:none;stroke:#000000;stroke-width:5.625;stroke-linecap:butt;stroke-linejoin:miter;stroke-miterlimit:1;stroke-dasharray:none;stroke-opacity:1"
         d="M 155,1550.4 H 425" /><path
         id="path84"
         style="fill:none;stroke:#000000;stroke-width:5.625;stroke-linecap:butt;stroke-linejoin:miter;stroke-miterlimit:1;stroke-dasharray:none;stroke-opacity:1"
         d="M 155,1505.4 H 425" /><path
         id="path86"
         style="fill:none;stroke:#000000;stroke-width:5.625;stroke-linecap:butt;stroke-linejoin:miter;stroke-miterlimit:1;stroke-dasharray:none;stroke-opacity:1"
         d="M 155,1460.4 H 425" /><path
         id="path88"
         style="fill:none;stroke:#000000;stroke-width:5.625;stroke-linecap:butt;stroke-linejoin:miter;stroke-miterlimit:1;stroke-dasharray:none;stroke-opacity:1"
         d="M 155,1415.4 H 425" /><path
         id="path90"
         style="fill:none;stroke:#000000;stroke-width:5.625;stroke-linecap:butt;stroke-linejoin:miter;stroke-miterlimit:1;stroke-dasharray:none;stroke-opacity:1"
         d="M 155,1370.4 H 425" /><path
         id="path92"
         style="fill:none;stroke:#000000;stroke-width:5.625;stroke-linecap:butt;stroke-linejoin:miter;stroke-miterlimit:1;stroke-dasharray:none;stroke-opacity:1"
         d="M 155,1325.4 H 425" /><path
         id="path94"
         style="fill:none;stroke:#000000;stroke-width:5.625;stroke-linecap:butt;stroke-linejoin:miter;stroke-miterlimit:1;stroke-dasharray:none;stroke-opacity:1"
         d="M 155,1730.4 H 425" /><path
         id="path96"
         style="fill:none;stroke:#000000;stroke-width:5.625;stroke-linecap:butt;stroke-linejoin:miter;stroke-miterlimit:1;stroke-dasharray:none;stroke-opacity:1"
         d="M 155,1685.4 H 425" /><path
         id="path98"
         style="fill:none;stroke:#000000;stroke-width:5.625;stroke-linecap:butt;stroke-linejoin:miter;stroke-miterlimit:1;stroke-dasharray:none;stroke-opacity:1"
         d="M 155,1640.4 H 425" /><path
         id="path100"
         style="fill:none;stroke:#000000;stroke-width:5.625;stroke-linecap:butt;stroke-linejoin:miter;stroke-miterlimit:1;stroke-dasharray:none;stroke-opacity:1"
         d="M 155,1595.4 H 425" /><path
         id="path102"
         style="fill:none;stroke:#000000;stroke-width:5.625;stroke-linecap:butt;stroke-linejoin:miter;stroke-miterlimit:1;stroke-dasharray:none;stroke-opacity:1"
         d="M 155,1550.4 H 425" /><path
         id="path104"
         style="fill:none;stroke:#000000;stroke-width:5.625;stroke-linecap:butt;stroke-linejoin:miter;stroke-miterlimit:1;stroke-dasharray:none;stroke-opacity:1"
         d="M 155,1505.4 H 425" /><g
         transform="scale(10)"
         id="g106"><text
           id="text112"
           style="font-variant:normal;font-weight:normal;font-size:7.875px;font-family:'Courier 10 Pitch';-inkscape-font-specification:Courier;writing-mode:lr-tb;fill:#000000;fill-opacity:1;fill-rule:nonzero;stroke:none"
           transform="matrix(1,0,0,-1,15.5,197.79)"><tspan
             id="tspan108"
             y="0"
             x="0 4.7249999 9.4499998 14.175 18.9">Original</tspan><tspan
             id="tspan110"
             y="7.875"
             x="0 4.7249999 9.4499998 14.175 18.9 23.625">text</tspan></text>
</g><path
         id="path114"
         style="fill:none;stroke:#000000;stroke-width:5.625;stroke-linecap:butt;stroke-linejoin:miter;stroke-miterlimit:10;stroke-dasharray:none;stroke-opacity:1"
         d="m 4790,1190.4 h 450 v 630 h -450 z" /><path
         id="path116"
         style="fill:none;stroke:#000000;stroke-width:5.625;stroke-linecap:butt;stroke-linejoin:miter;stroke-miterlimit:1;stroke-dasharray:none;stroke-opacity:1"
         d="m 4880,1550.4 h 270" /><path
         id="path118"
         style="fill:none;stroke:#000000;stroke-width:5.625;stroke-linecap:butt;stroke-linejoin:miter;stroke-miterlimit:1;stroke-dasharray:none;stroke-opacity:1"
         d="m 4880,1505.4 h 270" /><path
         id="path120"
         style="fill:none;stroke:#000000;stroke-width:5.625;stroke-linecap:butt;stroke-linejoin:miter;stroke-miterlimit:1;stroke-dasharray:none;stroke-opacity:1"
         d="m 4880,1460.4 h 270" /><path
         id="path122"
         style="fill:none;stroke:#000000;stroke-width:5.625;stroke-linecap:butt;stroke-linejoin:miter;stroke-miterlimit:1;stroke-dasharray:none;stroke-opacity:1"
         d="m 4880,1415.4 h 270" /><path
         id="path124"
         style="fill:none;stroke:#000000;stroke-width:5.625;stroke-linecap:butt;stroke-linejoin:miter;stroke-miterlimit:1;stroke-dasharray:none;stroke-opacity:1"
         d="m 4880,1370.4 h 270" /><path
         id="path126"
         style="fill:none;stroke:#000000;stroke-width:5.625;stroke-linecap:butt;stroke-linejoin:miter;stroke-miterlimit:1;stroke-dasharray:none;stroke-opacity:1"
         d="m 4880,1325.4 h 270" /><path
         id="path128"
         style="fill:none;stroke:#000000;stroke-width:5.625;stroke-linecap:butt;stroke-linejoin:miter;stroke-miterlimit:1;stroke-dasharray:none;stroke-opacity:1"
         d="m 4880,1730.4 h 270" /><path
         id="path130"
         style="fill:none;stroke:#000000;stroke-width:5.625;stroke-linecap:butt;stroke-linejoin:miter;stroke-miterlimit:1;stroke-dasharray:none;stroke-opacity:1"
         d="m 4880,1685.4 h 270" /><path
         id="path132"
         style="fill:none;stroke:#000000;stroke-width:5.625;stroke-linecap:butt;stroke-linejoin:miter;stroke-miterlimit:1;stroke-dasharray:none;stroke-opacity:1"
         d="m 4880,1640.4 h 270" /><path
         id="path134"
         style="fill:none;stroke:#000000;stroke-width:5.625;stroke-linecap:butt;stroke-linejoin:miter;stroke-miterlimit:1;stroke-dasharray:none;stroke-opacity:1"
         d="m 4880,1595.4 h 270" /><path
         id="path136"
         style="fill:none;stroke:#000000;stroke-width:5.625;stroke-linecap:butt;stroke-linejoin:miter;stroke-miterlimit:1;stroke-dasharray:none;stroke-opacity:1"
         d="m 4880,1550.4 h 270" /><path
         id="path138"
         style="fill:none;stroke:#000000;stroke-width:5.625;stroke-linecap:butt;stroke-linejoin:miter;stroke-miterlimit:1;stroke-dasharray:none;stroke-opacity:1"
         d="m 4880,1505.4 h 270" /><g
         transform="scale(10)"
         id="g140"><text
           id="text146"
           style="font-variant:normal;font-weight:normal;font-size:7.875px;font-family:'Courier 10 Pitch';-inkscape-font-specification:Courier;writing-mode:lr-tb;fill:#000000;fill-opacity:1;fill-rule:nonzero;stroke:none"
           transform="matrix(1,0,0,-1,488,197.79)"><tspan
             id="tspan142"
             y="0"
             x="0 4.7249999 9.4499998 14.175 18.9">Texto</tspan><tspan
             id="tspan144"
             y="7.875"
             x="0 4.7249999 9.4499998 14.175">meta</tspan></text>
</g><path
         id="path148"
         style="fill:none;stroke:#000000;stroke-width:16.875;stroke-linecap:butt;stroke-linejoin:miter;stroke-miterlimit:1;stroke-dasharray:67.5, 22.5;stroke-dashoffset:0;stroke-opacity:1"
         d="M 1842.5,1707.9 H 2135" /><path
         id="path150"
         style="fill:#ffffff;fill-opacity:1;fill-rule:nonzero;stroke:none"
         d="m 2202.5,1707.9 -67.5,-28.13 v 56.25" /><path
         id="path152"
         style="fill:#000000;fill-opacity:1;fill-rule:nonzero;stroke:none"
         d="m 2202.5,1707.9 -67.5,-28.13 v 56.25" /><path
         id="path154"
         style="fill:none;stroke:#000000;stroke-width:11.25;stroke-linecap:butt;stroke-linejoin:miter;stroke-miterlimit:1;stroke-dasharray:none;stroke-opacity:1"
         d="m 1842.5,1550.4 h 303.75" /><path
         id="path156"
         style="fill:#ffffff;fill-opacity:1;fill-rule:nonzero;stroke:none"
         d="m 2202.5,1550.4 -56.25,-22.5 v 45" /><path
         id="path158"
         style="fill:#000000;fill-opacity:1;fill-rule:nonzero;stroke:none"
         d="m 2202.5,1550.4 -56.25,-22.5 v 45" /><path
         id="path160"
         style="fill:none;stroke:#000000;stroke-width:5.625;stroke-linecap:butt;stroke-linejoin:miter;stroke-miterlimit:1;stroke-dasharray:none;stroke-opacity:1"
         d="m 1842.5,1392.9 h 315" /><path
         id="path162"
         style="fill:#ffffff;fill-opacity:1;fill-rule:nonzero;stroke:none"
         d="m 2202.5,1392.9 -45,-16.88 v 33.75" /><path
         id="path164"
         style="fill:#000000;fill-opacity:1;fill-rule:nonzero;stroke:none"
         d="m 2202.5,1392.9 -45,-16.88 v 33.75" /><g
         transform="scale(10)"
         id="g166"><text
           id="text174"
           style="font-variant:normal;font-weight:normal;font-size:7.875px;font-family:'Courier 10 Pitch';-inkscape-font-specification:Courier;writing-mode:lr-tb;fill:#000000;fill-opacity:1;fill-rule:nonzero;stroke:none"
           transform="matrix(1,0,0,-1,229.25,168.54)"><tspan
             id="tspan168"
             y="0"
             x="0 4.7249999 9.4499998 14.175 18.9 23.625 28.35 33.075001 37.799999 42.525002 47.25 51.974998 56.700001 61.424999 66.150002 70.875 75.599998 80.324997 85.050003 89.775002 94.5 99.224998 103.95 108.675 113.4">Flujo de texto segmentado</tspan><tspan
             id="tspan170"
             y="31.5"
             x="0 4.7249999 9.4499998 14.175 18.9 23.625 28.35 33.075001 37.799999 42.525002 47.25 51.974998 56.700001 61.424999 66.150002 70.875 75.599998 80.324997 85.050003 89.775002 94.5 99.224998 103.95">Flujo de texto original</tspan><tspan
             id="tspan172"
             y="15.75"
             x="0 4.7249999 9.4499998 14.175 18.9 23.625 28.35 33.075001 37.799999 42.525002 47.25 51.974998 56.700001 61.424999 66.150002 70.875 75.599998 80.324997 85.050003 89.775002 94.5 99.224998 103.95 108.675 113.4 118.125">Flujo de texto sin formato</tspan></text>
</g><path
         id="path176"
         style="fill:none;stroke:#000000;stroke-width:5.625;stroke-linecap:butt;stroke-linejoin:miter;stroke-miterlimit:1;stroke-dasharray:none;stroke-opacity:1"
         d="m 290,1190.4 v -180" /><path
         id="path178"
         style="fill:#ffffff;fill-opacity:1;fill-rule:nonzero;stroke:none"
         d="m 290,965.398 -16.875,45.002 h 33.75" /><path
         id="path180"
         style="fill:#000000;fill-opacity:1;fill-rule:nonzero;stroke:none"
         d="m 290,965.398 -16.875,45.002 h 33.75" /><path
         id="path182"
         style="fill:none;stroke:#000000;stroke-width:5.625;stroke-linecap:butt;stroke-linejoin:miter;stroke-miterlimit:1;stroke-dasharray:none;stroke-opacity:1"
         d="M 5015,1145.4 V 965.398" /><path
         id="path184"
         style="fill:#ffffff;fill-opacity:1;fill-rule:nonzero;stroke:none"
         d="m 5015,1190.4 16.88,-45 h -33.75" /><path
         id="path186"
         style="fill:#000000;fill-opacity:1;fill-rule:nonzero;stroke:none"
         d="m 5015,1190.4 16.88,-45 h -33.75" /><path
         id="path188"
         style="fill:none;stroke:#000000;stroke-width:11.25;stroke-linecap:butt;stroke-linejoin:miter;stroke-miterlimit:1;stroke-dasharray:none;stroke-opacity:1"
         d="M 582.5,785.398 H 751.25" /><path
         id="path190"
         style="fill:#ffffff;fill-opacity:1;fill-rule:nonzero;stroke:none"
         d="m 807.5,785.398 -56.25,-22.5 v 45" /><path
         id="path192"
         style="fill:#000000;fill-opacity:1;fill-rule:nonzero;stroke:none"
         d="m 807.5,785.398 -56.25,-22.5 v 45" /><path
         id="path194"
         style="fill:none;stroke:#000000;stroke-width:11.25;stroke-linecap:butt;stroke-linejoin:miter;stroke-miterlimit:1;stroke-dasharray:none;stroke-opacity:1"
         d="m 3732.5,785.398 h 168.75" /><path
         id="path196"
         style="fill:#ffffff;fill-opacity:1;fill-rule:nonzero;stroke:none"
         d="m 3957.5,785.398 -56.25,-22.5 v 45" /><path
         id="path198"
         style="fill:#000000;fill-opacity:1;fill-rule:nonzero;stroke:none"
         d="m 3957.5,785.398 -56.25,-22.5 v 45" /><path
         id="path200"
         style="fill:none;stroke:#000000;stroke-width:11.25;stroke-linecap:butt;stroke-linejoin:miter;stroke-miterlimit:1;stroke-dasharray:none;stroke-opacity:1"
         d="m 4520,785.398 h 168.75" /><path
         id="path202"
         style="fill:#ffffff;fill-opacity:1;fill-rule:nonzero;stroke:none"
         d="m 4745,785.398 -56.25,-22.5 v 45" /><path
         id="path204"
         style="fill:#000000;fill-opacity:1;fill-rule:nonzero;stroke:none"
         d="m 4745,785.398 -56.25,-22.5 v 45" /><path
         id="path206"
         style="fill:none;stroke:#000000;stroke-width:16.875;stroke-linecap:butt;stroke-linejoin:miter;stroke-miterlimit:1;stroke-dasharray:67.5, 22.5;stroke-dashoffset:0;stroke-opacity:1"
         d="m 1370,785.398 h 157.5" /><path
         id="path208"
         style="fill:#ffffff;fill-opacity:1;fill-rule:nonzero;stroke:none"
         d="m 1595,785.398 -67.5,-28.125 v 56.25" /><path
         id="path210"
         style="fill:#000000;fill-opacity:1;fill-rule:nonzero;stroke:none"
         d="m 1595,785.398 -67.5,-28.125 v 56.25" /><path
         id="path212"
         style="fill:none;stroke:#000000;stroke-width:16.875;stroke-linecap:butt;stroke-linejoin:miter;stroke-miterlimit:1;stroke-dasharray:67.5, 22.5;stroke-dashoffset:0;stroke-opacity:1"
         d="M 2157.5,785.398 H 2315" /><path
         id="path214"
         style="fill:#ffffff;fill-opacity:1;fill-rule:nonzero;stroke:none"
         d="M 2382.5,785.398 2315,757.273 v 56.25" /><path
         id="path216"
         style="fill:#000000;fill-opacity:1;fill-rule:nonzero;stroke:none"
         d="M 2382.5,785.398 2315,757.273 v 56.25" /><path
         id="path218"
         style="fill:none;stroke:#000000;stroke-width:16.875;stroke-linecap:butt;stroke-linejoin:miter;stroke-miterlimit:1;stroke-dasharray:67.5, 22.5;stroke-dashoffset:0;stroke-opacity:1"
         d="m 2945,785.398 h 157.5" /><path
         id="path220"
         style="fill:#ffffff;fill-opacity:1;fill-rule:nonzero;stroke:none"
         d="m 3170,785.398 -67.5,-28.125 v 56.25" /><path
         id="path222"
         style="fill:#000000;fill-opacity:1;fill-rule:nonzero;stroke:none"
         d="m 3170,785.398 -67.5,-28.125 v 56.25" /><path
         id="path224"
         style="fill:none;stroke:#000000;stroke-width:16.875;stroke-linecap:butt;stroke-linejoin:miter;stroke-miterlimit:1;stroke-dasharray:67.5, 22.5;stroke-dashoffset:0;stroke-opacity:1"
         d="m 2652.5,537.898 v -157.5" /><path
         id="path226"
         style="fill:#ffffff;fill-opacity:1;fill-rule:nonzero;stroke:none"
         d="m 2652.5,605.398 28.13,-67.5 h -56.25" /><path
         id="path228"
         style="fill:#000000;fill-opacity:1;fill-rule:nonzero;stroke:none"
         d="m 2652.5,605.398 28.13,-67.5 h -56.25" /><path
         id="path230"
         style="fill:none;stroke:#000000;stroke-width:5.625;stroke-linecap:butt;stroke-linejoin:miter;stroke-miterlimit:10;stroke-dasharray:none;stroke-opacity:1"
         d="m 20,605.398 h 562.5 v 360 H 20 Z" /><g
         transform="scale(10)"
         id="g232"><text
           id="text238"
           style="font-variant:normal;font-weight:normal;font-size:7.875px;font-family:'Courier 10 Pitch';-inkscape-font-specification:Courier;writing-mode:lr-tb;fill:#000000;fill-opacity:1;fill-rule:nonzero;stroke:none"
           transform="matrix(1,0,0,-1,6.5,80.7898)"><tspan
             id="tspan234"
             y="0"
             x="0 4.7249999 9.4499998 14.175">De-</tspan><tspan
             id="tspan236"
             y="7.875"
             x="0 4.7249999 9.4499998 14.175 18.9 23.625 28.35 33.075001 37.799999 42.525002 47.25">formatter</tspan></text>
</g></g></g></svg>
